<svg width="25" height="24" viewBox="0 0 25 24" fill="none" xmlns="http://www.w3.org/2000/svg">
<path fill-rule="evenodd" clip-rule="evenodd" d="M5.5 2C4.70435 2 3.94129 2.31607 3.37868 2.87868C2.81607 3.44129 2.5 4.20435 2.5 5V19C2.5 19.7956 2.81607 20.5587 3.37868 21.1213C3.94129 21.6839 4.70435 22 5.5 22H17.5C18.2956 22 19.0587 21.6839 19.6213 21.1213C20.1839 20.5587 20.5 19.7956 20.5 19V5C20.5 4.20435 20.1839 3.44129 19.6213 2.87868C19.0587 2.31607 18.2956 2 17.5 2H5.5ZM11.5 8C10.4391 8 9.42172 8.42143 8.67157 9.17157C7.92143 9.92172 7.5 10.9391 7.5 12C7.5 13.0609 7.92143 14.0783 8.67157 14.8284C9.42172 15.5786 10.4391 16 11.5 16C12.5609 16 13.5783 15.5786 14.3284 14.8284C15.0786 14.0783 15.5 13.0609 15.5 12C15.5 10.9391 15.0786 9.92172 14.3284 9.17157C13.5783 8.42143 12.5609 8 11.5 8ZM8.846 19.682C9.233 19.267 9.924 19 11.5 19C13.115 19 13.8 19.261 14.18 19.675C14.3616 19.86 14.6079 19.9672 14.867 19.974C15.1261 19.9809 15.3778 19.8869 15.569 19.7118C15.7601 19.5368 15.8758 19.2943 15.8917 19.0356C15.9075 18.7769 15.8223 18.5221 15.654 18.325C14.661 17.24 13.192 17 11.5 17C9.819 17 8.372 17.257 7.383 18.318C7.29344 18.4141 7.22367 18.5268 7.17769 18.6498C7.13171 18.7729 7.11041 18.9037 7.115 19.035C7.1196 19.1663 7.15001 19.2953 7.20448 19.4148C7.25896 19.5343 7.33644 19.6419 7.4325 19.7315C7.52856 19.8211 7.64132 19.8908 7.76435 19.9368C7.88737 19.9828 8.01825 20.0041 8.1495 19.9995C8.28076 19.9949 8.40982 19.9645 8.52933 19.91C8.64883 19.8555 8.75644 19.7781 8.846 19.682Z" fill="white" fill-opacity="0.5"/>
<path fill-rule="evenodd" clip-rule="evenodd" d="M9.5 12C9.5 11.4696 9.71071 10.9609 10.0858 10.5858C10.4609 10.2107 10.9696 10 11.5 10C12.0304 10 12.5391 10.2107 12.9142 10.5858C13.2893 10.9609 13.5 11.4696 13.5 12C13.5 12.5304 13.2893 13.0391 12.9142 13.4142C12.5391 13.7893 12.0304 14 11.5 14C10.9696 14 10.4609 13.7893 10.0858 13.4142C9.71071 13.0391 9.5 12.5304 9.5 12ZM20.146 22H20.5C21.2956 22 22.0587 21.6839 22.6213 21.1213C23.1839 20.5587 23.5 19.7956 23.5 19V5C23.5 4.20435 23.1839 3.44129 22.6213 2.87868C22.0587 2.31607 21.2956 2 20.5 2H20.146C20.5721 2.37498 20.9133 2.83654 21.1468 3.35388C21.3802 3.87122 21.5007 4.43241 21.5 5V19C21.5007 19.5676 21.3802 20.1288 21.1468 20.6461C20.9133 21.1635 20.5721 21.625 20.146 22Z" fill="white" fill-opacity="0.5"/>
</svg>
