<svg width="25" height="24" viewBox="0 0 25 24" fill="none" xmlns="http://www.w3.org/2000/svg">
<path fill-rule="evenodd" clip-rule="evenodd" d="M2.5 12C2.5 6.477 6.977 2 12.5 2C18.023 2 22.5 6.477 22.5 12C22.5 17.523 18.023 22 12.5 22C6.977 22 2.5 17.523 2.5 12ZM8.5 10C8.5 9.73478 8.60536 9.48043 8.79289 9.29289C8.98043 9.10536 9.23478 9 9.5 9H15.5C15.7652 9 16.0196 9.10536 16.2071 9.29289C16.3946 9.48043 16.5 9.73478 16.5 10C16.5 10.2652 16.3946 10.5196 16.2071 10.7071C16.0196 10.8946 15.7652 11 15.5 11H9.5C9.23478 11 8.98043 10.8946 8.79289 10.7071C8.60536 10.5196 8.5 10.2652 8.5 10ZM8.5 14C8.5 13.7348 8.60536 13.4804 8.79289 13.2929C8.98043 13.1054 9.23478 13 9.5 13H15.5C15.7652 13 16.0196 13.1054 16.2071 13.2929C16.3946 13.4804 16.5 13.7348 16.5 14C16.5 14.2652 16.3946 14.5196 16.2071 14.7071C16.0196 14.8946 15.7652 15 15.5 15H9.5C9.23478 15 8.98043 14.8946 8.79289 14.7071C8.60536 14.5196 8.5 14.2652 8.5 14Z" fill="white" fill-opacity="0.5"/>
</svg>
