<svg width="31" height="22" viewBox="0 0 31 22" fill="none" xmlns="http://www.w3.org/2000/svg">
<path d="M15.5 2.83333C20.7112 2.83333 25.3587 5.85083 27.6275 10.625C25.3587 15.3992 20.725 18.4167 15.5 18.4167C10.275 18.4167 5.64125 15.3992 3.3725 10.625C5.64125 5.85083 10.2888 2.83333 15.5 2.83333ZM15.5 0C8.625 0 2.75375 4.40583 0.375 10.625C2.75375 16.8442 8.625 21.25 15.5 21.25C22.375 21.25 28.2462 16.8442 30.625 10.625C28.2462 4.40583 22.375 0 15.5 0ZM15.5 7.08333C17.3975 7.08333 18.9375 8.67 18.9375 10.625C18.9375 12.58 17.3975 14.1667 15.5 14.1667C13.6025 14.1667 12.0625 12.58 12.0625 10.625C12.0625 8.67 13.6025 7.08333 15.5 7.08333ZM15.5 4.25C12.09 4.25 9.3125 7.11167 9.3125 10.625C9.3125 14.1383 12.09 17 15.5 17C18.91 17 21.6875 14.1383 21.6875 10.625C21.6875 7.11167 18.91 4.25 15.5 4.25Z" fill="#E5E5E5"/>
</svg>
