<svg width="54" height="48" viewBox="0 0 54 48" fill="none" xmlns="http://www.w3.org/2000/svg">
<path fill-rule="evenodd" clip-rule="evenodd" d="M16.3126 9.328C18.2701 6.734 21.6518 4 27.0001 4C32.3483 4 35.7301 6.734 37.6876 9.328C38.9805 11.0702 39.9209 12.9999 40.4663 15.03L43.9201 30.858C44.1095 31.7265 44.0805 32.6215 43.8352 33.479C43.5898 34.3364 43.1342 35.1349 42.501 35.8175C41.8677 36.5 41.0725 37.0496 40.1723 37.4269C39.2721 37.8043 38.2891 38 37.2938 38H16.7063C15.711 38 14.7281 37.8043 13.8278 37.4269C12.9276 37.0496 12.1324 36.5 11.4991 35.8175C10.8659 35.1349 10.4103 34.3364 10.1649 33.479C9.91961 32.6215 9.89062 31.7265 10.0801 30.858L13.5338 15.03C14.079 12.9992 15.0194 11.0709 16.3126 9.328Z" fill="black"/>
<path fill-rule="evenodd" clip-rule="evenodd" d="M19.1565 40C19.7235 40.96 20.592 41.966 21.9082 42.734C23.2807 43.534 25.0042 44 27.1057 44C29.205 44 30.9307 43.534 32.3032 42.734C33.6195 41.966 34.4857 40.962 35.055 40H19.1565Z" fill="black"/>
<path fill-rule="evenodd" clip-rule="evenodd" d="M38.9093 4.586C38.4874 4.96106 38.2505 5.46967 38.2505 6C38.2505 6.53033 38.4874 7.03894 38.9093 7.414C40.7678 9.066 41.7488 10.686 42.8175 14.486C42.966 14.9972 43.3358 15.4355 43.8463 15.7053C44.3569 15.9751 44.9667 16.0545 45.5429 15.9262C46.119 15.7979 46.6147 15.4723 46.9219 15.0204C47.229 14.5685 47.3227 14.027 47.1825 13.514C46.0013 9.314 44.73 6.934 42.0908 4.586C41.6688 4.21106 41.0966 4.00043 40.5 4.00043C39.9034 4.00043 39.3312 4.21106 38.9093 4.586ZM15.0908 4.586C15.5126 4.96106 15.7495 5.46967 15.7495 6C15.7495 6.53033 15.5126 7.03894 15.0908 7.414C13.2323 9.066 12.2513 10.686 11.1825 14.486C11.0341 14.9972 10.6642 15.4355 10.1537 15.7053C9.64315 15.9751 9.0333 16.0545 8.45715 15.9262C7.881 15.7979 7.38529 15.4723 7.07814 15.0204C6.77098 14.5685 6.67729 14.027 6.81751 13.514C7.99876 9.314 9.27001 6.934 11.9093 4.586C12.3312 4.21106 12.9034 4.00043 13.5 4.00043C14.0966 4.00043 14.6688 4.21106 15.0908 4.586Z" fill="black"/>
<ellipse cx="11.25" cy="28" rx="9" ry="8" fill="#FF0000"/>
</svg>
