<svg width="25" height="24" viewBox="0 0 25 24" fill="none" xmlns="http://www.w3.org/2000/svg">
<path fill-rule="evenodd" clip-rule="evenodd" d="M22.5 12.934V15.066C22.5 15.952 22.5 16.716 22.418 17.328C22.33 17.983 22.131 18.612 21.621 19.121C21.111 19.631 20.483 19.83 19.828 19.918C19.216 20 18.452 20 17.566 20H11.434C10.548 20 9.784 20 9.172 19.918C8.517 19.83 7.888 19.631 7.379 19.121C6.869 18.611 6.67 17.983 6.582 17.328C6.5 16.716 6.5 15.952 6.5 15.066V12.934C6.5 12.048 6.5 11.284 6.582 10.672C6.67 10.017 6.869 9.388 7.379 8.879C7.889 8.369 8.517 8.17 9.172 8.082C9.784 8 10.548 8 11.434 8H17.566C18.452 8 19.216 8 19.828 8.082C20.483 8.17 21.112 8.369 21.621 8.879C22.131 9.389 22.33 10.017 22.418 10.672C22.5 11.284 22.5 12.048 22.5 12.934ZM11.5 14C11.5 13.606 11.5776 13.2159 11.7284 12.8519C11.8791 12.488 12.1001 12.1573 12.3787 11.8787C12.6573 11.6001 12.988 11.3791 13.3519 11.2284C13.7159 11.0776 14.106 11 14.5 11C14.894 11 15.2841 11.0776 15.6481 11.2284C16.012 11.3791 16.3427 11.6001 16.6213 11.8787C16.8999 12.1573 17.1209 12.488 17.2716 12.8519C17.4224 13.2159 17.5 13.606 17.5 14C17.5 14.7956 17.1839 15.5587 16.6213 16.1213C16.0587 16.6839 15.2956 17 14.5 17C13.7044 17 12.9413 16.6839 12.3787 16.1213C11.8161 15.5587 11.5 14.7956 11.5 14Z" fill="white" fill-opacity="0.5"/>
<path fill-rule="evenodd" clip-rule="evenodd" d="M18.497 7.004C18.21 7 17.917 7 17.619 7H11.38C10.537 7 9.717 7 9.038 7.091C8.272 7.194 7.398 7.445 6.671 8.171C5.944 8.898 5.693 9.773 5.591 10.539C5.5 11.218 5.5 12.037 5.5 12.881V15.119C5.5 15.412 5.5 15.702 5.504 15.984C5.44129 15.9812 5.37861 15.9775 5.316 15.973C4.943 15.943 4.571 15.88 4.209 15.708C3.58805 15.4118 3.08777 14.9112 2.792 14.29C2.62 13.93 2.556 13.557 2.527 13.184C2.50272 12.7578 2.49371 12.3309 2.5 11.904V8.934C2.5 8.048 2.5 7.284 2.582 6.672C2.67 6.017 2.869 5.388 3.379 4.879C3.889 4.369 4.517 4.17 5.172 4.082C5.784 4 6.548 4 7.434 4H15.039C15.461 4 15.824 4 16.148 4.07C16.7061 4.19354 17.2173 4.47396 17.6214 4.87824C18.0255 5.28252 18.3057 5.79384 18.429 6.352C18.474 6.552 18.49 6.768 18.497 7.004Z" fill="white" fill-opacity="0.5"/>
</svg>
