<svg width="25" height="24" viewBox="0 0 25 24" fill="none" xmlns="http://www.w3.org/2000/svg">
<path fill-rule="evenodd" clip-rule="evenodd" d="M15.524 22C16.777 22 17.852 21.934 18.751 21.735C19.661 21.532 20.449 21.18 21.065 20.565C21.68 19.949 22.032 19.161 22.235 18.251C22.435 17.352 22.5 16.277 22.5 15.024V12C22.5 11.4696 22.2893 10.9609 21.9142 10.5858C21.5391 10.2107 21.0304 10 20.5 10H12.5C11.9696 10 11.4609 10.2107 11.0858 10.5858C10.7107 10.9609 10.5 11.4696 10.5 12V20C10.5 20.5304 10.7107 21.0391 11.0858 21.4142C11.4609 21.7893 11.9696 22 12.5 22H15.524ZM2.5 15.024C2.5 16.277 2.566 17.352 2.766 18.251C2.968 19.161 3.32 19.949 3.936 20.565C4.551 21.18 5.339 21.532 6.249 21.735C6.336 21.754 6.424 21.772 6.512 21.789C7.596 21.999 8.5 21.081 8.5 19.976V12C8.5 11.4696 8.28929 10.9609 7.91421 10.5858C7.53914 10.2107 7.03043 10 6.5 10H4.5C3.96957 10 3.46086 10.2107 3.08579 10.5858C2.71071 10.9609 2.5 11.4696 2.5 12V15.024ZM9.476 2C8.223 2 7.148 2.066 6.249 2.266C5.339 2.468 4.551 2.82 3.935 3.436C3.32 4.051 2.968 4.839 2.765 5.749C2.749 5.824 2.733 5.899 2.719 5.974C2.504 7.073 3.439 8 4.559 8H20.476C21.581 8 22.499 7.096 22.289 6.012C22.2719 5.92409 22.2535 5.83641 22.234 5.749C22.032 4.839 21.68 4.051 21.064 3.435C20.449 2.82 19.661 2.468 18.751 2.265C17.852 2.065 16.777 2 15.524 2H9.476Z" fill="white"/>
</svg>
