<svg width="92" height="65" viewBox="0 0 92 65" fill="none" xmlns="http://www.w3.org/2000/svg">
<g filter="url(#filter0_d_207_814)">
<path d="M48.1716 57.7518V50.4968C63.032 54.0476 71.805 53.6758 87.8638 50.4935V57.7408C87.8638 58.0812 87.6212 58.3775 87.2874 58.4486C71.8499 61.7358 63.2174 61.7868 48.7355 58.4566C48.4075 58.3812 48.1716 58.0876 48.1716 57.7518Z" fill="url(#paint0_linear_207_814)" stroke="url(#paint1_linear_207_814)" stroke-width="0.131615"/>
<g filter="url(#filter1_d_207_814)">
<ellipse cx="68.0177" cy="50.2229" rx="19.9119" ry="3.63609" fill="url(#paint2_linear_207_814)"/>
<path d="M87.8638 50.2229C87.8638 50.4477 87.7393 50.6764 87.4813 50.9066C87.2235 51.1367 86.8395 51.3617 86.3388 51.5779C85.3379 52.01 83.8855 52.4007 82.0858 52.7293C78.4874 53.3864 73.5135 53.7932 68.0177 53.7932C62.5219 53.7932 57.5481 53.3864 53.9497 52.7293C52.15 52.4007 50.6976 52.01 49.6967 51.5779C49.196 51.3617 48.812 51.1367 48.5542 50.9066C48.2961 50.6764 48.1716 50.4477 48.1716 50.2229C48.1716 49.9982 48.2961 49.7695 48.5542 49.5392C48.812 49.3092 49.196 49.0842 49.6967 48.868C50.6976 48.4359 52.15 48.0452 53.9497 47.7166C57.5481 47.0595 62.5219 46.6527 68.0177 46.6527C73.5135 46.6527 78.4874 47.0595 82.0858 47.7166C83.8855 48.0452 85.3379 48.4359 86.3388 48.868C86.8395 49.0842 87.2235 49.3092 87.4813 49.5392C87.7393 49.7695 87.8638 49.9982 87.8638 50.2229Z" stroke="white" stroke-opacity="0.2" stroke-width="0.131615"/>
</g>
</g>
<g filter="url(#filter2_d_207_814)">
<path d="M3.13612 57.7518V50.4968C17.9965 54.0476 26.7695 53.6758 42.8283 50.4935V57.7408C42.8283 58.0812 42.5856 58.3775 42.2519 58.4486C26.8144 61.7358 18.1819 61.7868 3.69998 58.4566C3.37199 58.3812 3.13612 58.0876 3.13612 57.7518Z" fill="url(#paint3_linear_207_814)" stroke="url(#paint4_linear_207_814)" stroke-width="0.131615"/>
<g filter="url(#filter3_d_207_814)">
<ellipse cx="22.9822" cy="50.2229" rx="19.9119" ry="3.63609" fill="url(#paint5_linear_207_814)"/>
<path d="M42.8283 50.2229C42.8283 50.4477 42.7038 50.6764 42.4458 50.9066C42.188 51.1367 41.804 51.3617 41.3033 51.5779C40.3024 52.01 38.85 52.4007 37.0502 52.7293C33.4519 53.3864 28.478 53.7932 22.9822 53.7932C17.4864 53.7932 12.5126 53.3864 8.9142 52.7293C7.11446 52.4007 5.66208 52.01 4.66117 51.5779C4.16047 51.3617 3.77646 51.1367 3.51867 50.9066C3.26062 50.6764 3.13612 50.4477 3.13612 50.2229C3.13612 49.9982 3.26062 49.7695 3.51867 49.5392C3.77646 49.3092 4.16047 49.0842 4.66117 48.868C5.66208 48.4359 7.11446 48.0452 8.9142 47.7166C12.5126 47.0595 17.4864 46.6527 22.9822 46.6527C28.478 46.6527 33.4519 47.0595 37.0502 47.7166C38.85 48.0452 40.3024 48.4359 41.3033 48.868C41.804 49.0842 42.188 49.3092 42.4458 49.5392C42.7038 49.7695 42.8283 49.9982 42.8283 50.2229Z" stroke="white" stroke-opacity="0.2" stroke-width="0.131615"/>
</g>
</g>
<g filter="url(#filter4_d_207_814)">
<path d="M48.1716 46.2375V38.9825C63.032 42.5333 71.805 42.1616 87.8638 38.9792V46.2265C87.8638 46.5669 87.6212 46.8632 87.2874 46.9343C71.8499 50.2215 63.2174 50.2725 48.7355 46.9423C48.4075 46.8669 48.1716 46.5734 48.1716 46.2375Z" fill="url(#paint6_linear_207_814)" stroke="url(#paint7_linear_207_814)" stroke-width="0.131615"/>
<g filter="url(#filter5_d_207_814)">
<ellipse cx="68.0177" cy="38.7087" rx="19.9119" ry="3.63609" fill="url(#paint8_linear_207_814)"/>
<path d="M87.8638 38.7087C87.8638 38.9334 87.7393 39.1621 87.4813 39.3924C87.2235 39.6224 86.8395 39.8474 86.3388 40.0636C85.3379 40.4957 83.8855 40.8864 82.0858 41.215C78.4874 41.8721 73.5135 42.2789 68.0177 42.2789C62.5219 42.2789 57.5481 41.8721 53.9497 41.215C52.15 40.8864 50.6976 40.4957 49.6967 40.0636C49.196 39.8474 48.812 39.6224 48.5542 39.3924C48.2961 39.1621 48.1716 38.9334 48.1716 38.7087C48.1716 38.4839 48.2961 38.2552 48.5542 38.025C48.812 37.7949 49.196 37.5699 49.6967 37.3537C50.6976 36.9216 52.15 36.5309 53.9497 36.2023C57.5481 35.5452 62.5219 35.1384 68.0177 35.1384C73.5135 35.1384 78.4874 35.5452 82.0858 36.2023C83.8855 36.5309 85.3379 36.9216 86.3388 37.3537C86.8395 37.5699 87.2235 37.7949 87.4813 38.025C87.7393 38.2552 87.8638 38.4839 87.8638 38.7087Z" stroke="white" stroke-opacity="0.2" stroke-width="0.131615"/>
</g>
</g>
<g filter="url(#filter6_d_207_814)">
<path d="M3.13612 46.2375V38.9825C17.9965 42.5333 26.7695 42.1616 42.8283 38.9792V46.2265C42.8283 46.5669 42.5856 46.8632 42.2519 46.9343C26.8144 50.2215 18.1819 50.2725 3.69998 46.9423C3.37199 46.8669 3.13612 46.5734 3.13612 46.2375Z" fill="#925FE2" stroke="url(#paint9_linear_207_814)" stroke-width="0.131615"/>
<g filter="url(#filter7_d_207_814)">
<ellipse cx="22.9822" cy="38.7087" rx="19.9119" ry="3.63609" fill="#925FE2"/>
<path d="M42.8283 38.7087C42.8283 38.9334 42.7038 39.1621 42.4458 39.3924C42.188 39.6224 41.804 39.8474 41.3033 40.0636C40.3024 40.4957 38.85 40.8864 37.0502 41.215C33.4519 41.8721 28.478 42.2789 22.9822 42.2789C17.4864 42.2789 12.5126 41.8721 8.9142 41.215C7.11446 40.8864 5.66208 40.4957 4.66117 40.0636C4.16047 39.8474 3.77646 39.6224 3.51867 39.3924C3.26062 39.1621 3.13612 38.9334 3.13612 38.7087C3.13612 38.4839 3.26062 38.2552 3.51867 38.025C3.77646 37.7949 4.16047 37.5699 4.66117 37.3537C5.66208 36.9216 7.11446 36.5309 8.9142 36.2023C12.5126 35.5452 17.4864 35.1384 22.9822 35.1384C28.478 35.1384 33.4519 35.5452 37.0502 36.2023C38.85 36.5309 40.3024 36.9216 41.3033 37.3537C41.804 37.5699 42.188 37.7949 42.4458 38.025C42.7038 38.2552 42.8283 38.4839 42.8283 38.7087Z" stroke="#E2D4F7" stroke-width="0.131615"/>
</g>
<g filter="url(#filter8_f_207_814)">
<ellipse cx="23.2679" cy="38.8558" rx="10.6918" ry="0.822448" fill="#E2D4F7"/>
</g>
</g>
<g filter="url(#filter9_d_207_814)">
<path d="M48.1543 34.758V27.503C63.0147 31.0538 71.7877 30.682 87.8465 27.4997V34.747C87.8465 35.0874 87.6038 35.3837 87.2701 35.4548C71.8326 38.742 63.2 38.793 48.7182 35.4628C48.3902 35.3874 48.1543 35.0938 48.1543 34.758Z" fill="url(#paint10_linear_207_814)" stroke="url(#paint11_linear_207_814)" stroke-width="0.131615"/>
<g filter="url(#filter10_d_207_814)">
<ellipse cx="68.0004" cy="27.229" rx="19.9119" ry="3.63609" fill="url(#paint12_linear_207_814)"/>
<path d="M87.8465 27.229C87.8465 27.4538 87.722 27.6825 87.464 27.9127C87.2062 28.1428 86.8222 28.3678 86.3214 28.584C85.3205 29.0161 83.8682 29.4068 82.0684 29.7354C78.47 30.3925 73.4962 30.7993 68.0004 30.7993C62.5046 30.7993 57.5308 30.3925 53.9324 29.7354C52.1327 29.4068 50.6803 29.0161 49.6794 28.584C49.1787 28.3678 48.7947 28.1428 48.5369 27.9127C48.2788 27.6825 48.1543 27.4538 48.1543 27.229C48.1543 27.0043 48.2788 26.7756 48.5369 26.5453C48.7947 26.3153 49.1787 26.0903 49.6794 25.8741C50.6803 25.442 52.1327 25.0513 53.9324 24.7227C57.5308 24.0656 62.5046 23.6588 68.0004 23.6588C73.4962 23.6588 78.47 24.0656 82.0684 24.7227C83.8682 25.0513 85.3205 25.442 86.3214 25.8741C86.8222 26.0903 87.2062 26.3153 87.464 26.5453C87.722 26.7756 87.8465 27.0043 87.8465 27.229Z" stroke="white" stroke-opacity="0.2" stroke-width="0.131615"/>
</g>
</g>
<g filter="url(#filter11_d_207_814)">
<path d="M48.1543 23.3129V16.0579C63.0147 19.6088 71.7877 19.237 87.8465 16.0546V23.3019C87.8465 23.6423 87.6038 23.9386 87.2701 24.0097C71.8326 27.2969 63.2 27.3479 48.7182 24.0177C48.3902 23.9423 48.1543 23.6488 48.1543 23.3129Z" fill="url(#paint13_linear_207_814)" stroke="url(#paint14_linear_207_814)" stroke-width="0.131615"/>
<g filter="url(#filter12_d_207_814)">
<ellipse cx="68.0004" cy="15.784" rx="19.9119" ry="3.63609" fill="url(#paint15_linear_207_814)"/>
<path d="M87.8465 15.784C87.8465 16.0088 87.722 16.2375 87.464 16.4677C87.2062 16.6978 86.8222 16.9228 86.3214 17.139C85.3205 17.5711 83.8682 17.9618 82.0684 18.2904C78.47 18.9475 73.4962 19.3543 68.0004 19.3543C62.5046 19.3543 57.5308 18.9475 53.9324 18.2904C52.1327 17.9618 50.6803 17.5711 49.6794 17.139C49.1787 16.9228 48.7947 16.6978 48.5369 16.4677C48.2788 16.2375 48.1543 16.0088 48.1543 15.784C48.1543 15.5593 48.2788 15.3306 48.5369 15.1003C48.7947 14.8703 49.1787 14.6453 49.6794 14.4291C50.6803 13.997 52.1327 13.6063 53.9324 13.2777C57.5308 12.6206 62.5046 12.2138 68.0004 12.2138C73.4962 12.2138 78.47 12.6206 82.0684 13.2777C83.8682 13.6063 85.3205 13.997 86.3214 14.4291C86.8222 14.6453 87.2062 14.8703 87.464 15.1003C87.722 15.3306 87.8465 15.5593 87.8465 15.784Z" stroke="white" stroke-opacity="0.2" stroke-width="0.131615"/>
</g>
</g>
<g filter="url(#filter13_d_207_814)">
<path d="M42.5658 12.7389V5.48393C57.4262 9.03479 66.1992 8.66302 82.258 5.48066V12.728C82.258 13.0683 82.0153 13.3647 81.6816 13.4357C66.2441 16.723 57.6115 16.7739 43.1297 13.4438C42.8017 13.3683 42.5658 13.0748 42.5658 12.7389Z" fill="url(#paint16_linear_207_814)" stroke="url(#paint17_linear_207_814)" stroke-width="0.131615"/>
<g filter="url(#filter14_d_207_814)">
<ellipse cx="62.4119" cy="5.21006" rx="19.9119" ry="3.63609" fill="url(#paint18_linear_207_814)"/>
<path d="M82.258 5.21006C82.258 5.43483 82.1335 5.66349 81.8755 5.89376C81.6177 6.12382 81.2337 6.34881 80.7329 6.56498C79.732 6.9971 78.2797 7.38778 76.4799 7.71643C72.8815 8.37353 67.9077 8.78034 62.4119 8.78034C56.9161 8.78034 51.9423 8.37353 48.3439 7.71643C46.5442 7.38778 45.0918 6.9971 44.0909 6.56498C43.5902 6.34881 43.2062 6.12382 42.9484 5.89376C42.6903 5.66349 42.5658 5.43483 42.5658 5.21006C42.5658 4.9853 42.6903 4.75664 42.9484 4.52637C43.2062 4.29631 43.5902 4.07132 44.0909 3.85515C45.0918 3.42303 46.5442 3.03235 48.3439 2.7037C51.9423 2.0466 56.9161 1.63979 62.4119 1.63979C67.9077 1.63979 72.8815 2.0466 76.4799 2.7037C78.2797 3.03235 79.732 3.42303 80.7329 3.85515C81.2337 4.07132 81.6177 4.29631 81.8755 4.52637C82.1335 4.75664 82.258 4.9853 82.258 5.21006Z" stroke="white" stroke-opacity="0.2" stroke-width="0.131615"/>
</g>
</g>
<defs>
<filter id="filter0_d_207_814" x="47.0529" y="45.7972" width="44.562" height="19.1512" filterUnits="userSpaceOnUse" color-interpolation-filters="sRGB">
<feFlood flood-opacity="0" result="BackgroundImageFix"/>
<feColorMatrix in="SourceAlpha" type="matrix" values="0 0 0 0 0 0 0 0 0 0 0 0 0 0 0 0 0 0 127 0" result="hardAlpha"/>
<feOffset dx="1.31615" dy="1.57937"/>
<feGaussianBlur stdDeviation="1.18453"/>
<feComposite in2="hardAlpha" operator="out"/>
<feColorMatrix type="matrix" values="0 0 0 0 0.228976 0 0 0 0 0.34229 0 0 0 0 0.504167 0 0 0 0.15 0"/>
<feBlend mode="normal" in2="BackgroundImageFix" result="effect1_dropShadow_207_814"/>
<feBlend mode="normal" in="SourceGraphic" in2="effect1_dropShadow_207_814" result="shape"/>
</filter>
<filter id="filter1_d_207_814" x="46" y="45.2707" width="44.0355" height="11.4838" filterUnits="userSpaceOnUse" color-interpolation-filters="sRGB">
<feFlood flood-opacity="0" result="BackgroundImageFix"/>
<feColorMatrix in="SourceAlpha" type="matrix" values="0 0 0 0 0 0 0 0 0 0 0 0 0 0 0 0 0 0 127 0" result="hardAlpha"/>
<feOffset dy="0.789687"/>
<feGaussianBlur stdDeviation="1.05292"/>
<feComposite in2="hardAlpha" operator="out"/>
<feColorMatrix type="matrix" values="0 0 0 0 0.6825 0 0 0 0 0.782885 0 0 0 0 0.9 0 0 0 0.5 0"/>
<feBlend mode="normal" in2="BackgroundImageFix" result="effect1_dropShadow_207_814"/>
<feBlend mode="normal" in="SourceGraphic" in2="effect1_dropShadow_207_814" result="shape"/>
</filter>
<filter id="filter2_d_207_814" x="2.0174" y="45.7972" width="44.562" height="19.1512" filterUnits="userSpaceOnUse" color-interpolation-filters="sRGB">
<feFlood flood-opacity="0" result="BackgroundImageFix"/>
<feColorMatrix in="SourceAlpha" type="matrix" values="0 0 0 0 0 0 0 0 0 0 0 0 0 0 0 0 0 0 127 0" result="hardAlpha"/>
<feOffset dx="1.31615" dy="1.57937"/>
<feGaussianBlur stdDeviation="1.18453"/>
<feComposite in2="hardAlpha" operator="out"/>
<feColorMatrix type="matrix" values="0 0 0 0 0.228976 0 0 0 0 0.34229 0 0 0 0 0.504167 0 0 0 0.15 0"/>
<feBlend mode="normal" in2="BackgroundImageFix" result="effect1_dropShadow_207_814"/>
<feBlend mode="normal" in="SourceGraphic" in2="effect1_dropShadow_207_814" result="shape"/>
</filter>
<filter id="filter3_d_207_814" x="0.96448" y="45.2707" width="44.0355" height="11.4838" filterUnits="userSpaceOnUse" color-interpolation-filters="sRGB">
<feFlood flood-opacity="0" result="BackgroundImageFix"/>
<feColorMatrix in="SourceAlpha" type="matrix" values="0 0 0 0 0 0 0 0 0 0 0 0 0 0 0 0 0 0 127 0" result="hardAlpha"/>
<feOffset dy="0.789687"/>
<feGaussianBlur stdDeviation="1.05292"/>
<feComposite in2="hardAlpha" operator="out"/>
<feColorMatrix type="matrix" values="0 0 0 0 0.6825 0 0 0 0 0.782885 0 0 0 0 0.9 0 0 0 0.5 0"/>
<feBlend mode="normal" in2="BackgroundImageFix" result="effect1_dropShadow_207_814"/>
<feBlend mode="normal" in="SourceGraphic" in2="effect1_dropShadow_207_814" result="shape"/>
</filter>
<filter id="filter4_d_207_814" x="47.0529" y="34.2829" width="44.562" height="19.1512" filterUnits="userSpaceOnUse" color-interpolation-filters="sRGB">
<feFlood flood-opacity="0" result="BackgroundImageFix"/>
<feColorMatrix in="SourceAlpha" type="matrix" values="0 0 0 0 0 0 0 0 0 0 0 0 0 0 0 0 0 0 127 0" result="hardAlpha"/>
<feOffset dx="1.31615" dy="1.57937"/>
<feGaussianBlur stdDeviation="1.18453"/>
<feComposite in2="hardAlpha" operator="out"/>
<feColorMatrix type="matrix" values="0 0 0 0 0.228976 0 0 0 0 0.34229 0 0 0 0 0.504167 0 0 0 0.15 0"/>
<feBlend mode="normal" in2="BackgroundImageFix" result="effect1_dropShadow_207_814"/>
<feBlend mode="normal" in="SourceGraphic" in2="effect1_dropShadow_207_814" result="shape"/>
</filter>
<filter id="filter5_d_207_814" x="46" y="33.7564" width="44.0355" height="11.4838" filterUnits="userSpaceOnUse" color-interpolation-filters="sRGB">
<feFlood flood-opacity="0" result="BackgroundImageFix"/>
<feColorMatrix in="SourceAlpha" type="matrix" values="0 0 0 0 0 0 0 0 0 0 0 0 0 0 0 0 0 0 127 0" result="hardAlpha"/>
<feOffset dy="0.789687"/>
<feGaussianBlur stdDeviation="1.05292"/>
<feComposite in2="hardAlpha" operator="out"/>
<feColorMatrix type="matrix" values="0 0 0 0 0.6825 0 0 0 0 0.782885 0 0 0 0 0.9 0 0 0 0.5 0"/>
<feBlend mode="normal" in2="BackgroundImageFix" result="effect1_dropShadow_207_814"/>
<feBlend mode="normal" in="SourceGraphic" in2="effect1_dropShadow_207_814" result="shape"/>
</filter>
<filter id="filter6_d_207_814" x="2.0174" y="34.2829" width="44.562" height="19.1512" filterUnits="userSpaceOnUse" color-interpolation-filters="sRGB">
<feFlood flood-opacity="0" result="BackgroundImageFix"/>
<feColorMatrix in="SourceAlpha" type="matrix" values="0 0 0 0 0 0 0 0 0 0 0 0 0 0 0 0 0 0 127 0" result="hardAlpha"/>
<feOffset dx="1.31615" dy="1.57937"/>
<feGaussianBlur stdDeviation="1.18453"/>
<feComposite in2="hardAlpha" operator="out"/>
<feColorMatrix type="matrix" values="0 0 0 0 0.228976 0 0 0 0 0.34229 0 0 0 0 0.504167 0 0 0 0.15 0"/>
<feBlend mode="normal" in2="BackgroundImageFix" result="effect1_dropShadow_207_814"/>
<feBlend mode="normal" in="SourceGraphic" in2="effect1_dropShadow_207_814" result="shape"/>
</filter>
<filter id="filter7_d_207_814" x="0.96448" y="33.7564" width="44.0355" height="11.4838" filterUnits="userSpaceOnUse" color-interpolation-filters="sRGB">
<feFlood flood-opacity="0" result="BackgroundImageFix"/>
<feColorMatrix in="SourceAlpha" type="matrix" values="0 0 0 0 0 0 0 0 0 0 0 0 0 0 0 0 0 0 127 0" result="hardAlpha"/>
<feOffset dy="0.789687"/>
<feGaussianBlur stdDeviation="1.05292"/>
<feComposite in2="hardAlpha" operator="out"/>
<feColorMatrix type="matrix" values="0 0 0 0 0.6825 0 0 0 0 0.782885 0 0 0 0 0.9 0 0 0 0.5 0"/>
<feBlend mode="normal" in2="BackgroundImageFix" result="effect1_dropShadow_207_814"/>
<feBlend mode="normal" in="SourceGraphic" in2="effect1_dropShadow_207_814" result="shape"/>
</filter>
<filter id="filter8_f_207_814" x="7.31147" y="32.7687" width="31.9128" height="12.1741" filterUnits="userSpaceOnUse" color-interpolation-filters="sRGB">
<feFlood flood-opacity="0" result="BackgroundImageFix"/>
<feBlend mode="normal" in="SourceGraphic" in2="BackgroundImageFix" result="shape"/>
<feGaussianBlur stdDeviation="2.63229" result="effect1_foregroundBlur_207_814"/>
</filter>
<filter id="filter9_d_207_814" x="47.0356" y="22.8033" width="44.562" height="19.1513" filterUnits="userSpaceOnUse" color-interpolation-filters="sRGB">
<feFlood flood-opacity="0" result="BackgroundImageFix"/>
<feColorMatrix in="SourceAlpha" type="matrix" values="0 0 0 0 0 0 0 0 0 0 0 0 0 0 0 0 0 0 127 0" result="hardAlpha"/>
<feOffset dx="1.31615" dy="1.57937"/>
<feGaussianBlur stdDeviation="1.18453"/>
<feComposite in2="hardAlpha" operator="out"/>
<feColorMatrix type="matrix" values="0 0 0 0 0.228976 0 0 0 0 0.34229 0 0 0 0 0.504167 0 0 0 0.15 0"/>
<feBlend mode="normal" in2="BackgroundImageFix" result="effect1_dropShadow_207_814"/>
<feBlend mode="normal" in="SourceGraphic" in2="effect1_dropShadow_207_814" result="shape"/>
</filter>
<filter id="filter10_d_207_814" x="45.9827" y="22.2768" width="44.0355" height="11.4838" filterUnits="userSpaceOnUse" color-interpolation-filters="sRGB">
<feFlood flood-opacity="0" result="BackgroundImageFix"/>
<feColorMatrix in="SourceAlpha" type="matrix" values="0 0 0 0 0 0 0 0 0 0 0 0 0 0 0 0 0 0 127 0" result="hardAlpha"/>
<feOffset dy="0.789687"/>
<feGaussianBlur stdDeviation="1.05292"/>
<feComposite in2="hardAlpha" operator="out"/>
<feColorMatrix type="matrix" values="0 0 0 0 0.6825 0 0 0 0 0.782885 0 0 0 0 0.9 0 0 0 0.5 0"/>
<feBlend mode="normal" in2="BackgroundImageFix" result="effect1_dropShadow_207_814"/>
<feBlend mode="normal" in="SourceGraphic" in2="effect1_dropShadow_207_814" result="shape"/>
</filter>
<filter id="filter11_d_207_814" x="47.0356" y="11.3583" width="44.562" height="19.1513" filterUnits="userSpaceOnUse" color-interpolation-filters="sRGB">
<feFlood flood-opacity="0" result="BackgroundImageFix"/>
<feColorMatrix in="SourceAlpha" type="matrix" values="0 0 0 0 0 0 0 0 0 0 0 0 0 0 0 0 0 0 127 0" result="hardAlpha"/>
<feOffset dx="1.31615" dy="1.57937"/>
<feGaussianBlur stdDeviation="1.18453"/>
<feComposite in2="hardAlpha" operator="out"/>
<feColorMatrix type="matrix" values="0 0 0 0 0.228976 0 0 0 0 0.34229 0 0 0 0 0.504167 0 0 0 0.15 0"/>
<feBlend mode="normal" in2="BackgroundImageFix" result="effect1_dropShadow_207_814"/>
<feBlend mode="normal" in="SourceGraphic" in2="effect1_dropShadow_207_814" result="shape"/>
</filter>
<filter id="filter12_d_207_814" x="45.9827" y="10.8318" width="44.0355" height="11.4838" filterUnits="userSpaceOnUse" color-interpolation-filters="sRGB">
<feFlood flood-opacity="0" result="BackgroundImageFix"/>
<feColorMatrix in="SourceAlpha" type="matrix" values="0 0 0 0 0 0 0 0 0 0 0 0 0 0 0 0 0 0 127 0" result="hardAlpha"/>
<feOffset dy="0.789687"/>
<feGaussianBlur stdDeviation="1.05292"/>
<feComposite in2="hardAlpha" operator="out"/>
<feColorMatrix type="matrix" values="0 0 0 0 0.6825 0 0 0 0 0.782885 0 0 0 0 0.9 0 0 0 0.5 0"/>
<feBlend mode="normal" in2="BackgroundImageFix" result="effect1_dropShadow_207_814"/>
<feBlend mode="normal" in="SourceGraphic" in2="effect1_dropShadow_207_814" result="shape"/>
</filter>
<filter id="filter13_d_207_814" x="41.4471" y="0.784292" width="44.562" height="19.1513" filterUnits="userSpaceOnUse" color-interpolation-filters="sRGB">
<feFlood flood-opacity="0" result="BackgroundImageFix"/>
<feColorMatrix in="SourceAlpha" type="matrix" values="0 0 0 0 0 0 0 0 0 0 0 0 0 0 0 0 0 0 127 0" result="hardAlpha"/>
<feOffset dx="1.31615" dy="1.57937"/>
<feGaussianBlur stdDeviation="1.18453"/>
<feComposite in2="hardAlpha" operator="out"/>
<feColorMatrix type="matrix" values="0 0 0 0 0.228976 0 0 0 0 0.34229 0 0 0 0 0.504167 0 0 0 0.15 0"/>
<feBlend mode="normal" in2="BackgroundImageFix" result="effect1_dropShadow_207_814"/>
<feBlend mode="normal" in="SourceGraphic" in2="effect1_dropShadow_207_814" result="shape"/>
</filter>
<filter id="filter14_d_207_814" x="40.3942" y="0.257833" width="44.0355" height="11.4838" filterUnits="userSpaceOnUse" color-interpolation-filters="sRGB">
<feFlood flood-opacity="0" result="BackgroundImageFix"/>
<feColorMatrix in="SourceAlpha" type="matrix" values="0 0 0 0 0 0 0 0 0 0 0 0 0 0 0 0 0 0 127 0" result="hardAlpha"/>
<feOffset dy="0.789687"/>
<feGaussianBlur stdDeviation="1.05292"/>
<feComposite in2="hardAlpha" operator="out"/>
<feColorMatrix type="matrix" values="0 0 0 0 0.6825 0 0 0 0 0.782885 0 0 0 0 0.9 0 0 0 0.5 0"/>
<feBlend mode="normal" in2="BackgroundImageFix" result="effect1_dropShadow_207_814"/>
<feBlend mode="normal" in="SourceGraphic" in2="effect1_dropShadow_207_814" result="shape"/>
</filter>
<linearGradient id="paint0_linear_207_814" x1="68.0177" y1="50.4134" x2="79.2993" y2="73.6459" gradientUnits="userSpaceOnUse">
<stop stop-color="#925FE2"/>
<stop offset="1" stop-color="#E2D4F7"/>
</linearGradient>
<linearGradient id="paint1_linear_207_814" x1="68.0177" y1="50.4134" x2="68.0177" y2="60.9999" gradientUnits="userSpaceOnUse">
<stop stop-color="#925FE2"/>
<stop offset="1" stop-color="#DFE7F5"/>
</linearGradient>
<linearGradient id="paint2_linear_207_814" x1="68.0177" y1="46.5869" x2="73.9376" y2="64.3343" gradientUnits="userSpaceOnUse">
<stop stop-color="#925FE2"/>
<stop offset="1" stop-color="#E2D4F7"/>
</linearGradient>
<linearGradient id="paint3_linear_207_814" x1="22.9822" y1="50.4134" x2="36.5925" y2="70.9633" gradientUnits="userSpaceOnUse">
<stop stop-color="#925FE2"/>
<stop offset="1" stop-color="#E2D4F7"/>
</linearGradient>
<linearGradient id="paint4_linear_207_814" x1="22.9822" y1="50.4134" x2="22.9822" y2="60.9999" gradientUnits="userSpaceOnUse">
<stop stop-color="#925FE2"/>
<stop offset="1" stop-color="#DFE7F5"/>
</linearGradient>
<linearGradient id="paint5_linear_207_814" x1="22.9822" y1="46.5869" x2="30.6371" y2="63.4125" gradientUnits="userSpaceOnUse">
<stop stop-color="#925FE2"/>
<stop offset="1" stop-color="#E2D4F7"/>
</linearGradient>
<linearGradient id="paint6_linear_207_814" x1="68.0177" y1="38.8991" x2="78.074" y2="66.8858" gradientUnits="userSpaceOnUse">
<stop stop-color="#925FE2"/>
<stop offset="1" stop-color="#E2D4F7"/>
</linearGradient>
<linearGradient id="paint7_linear_207_814" x1="68.0177" y1="38.8991" x2="68.0177" y2="49.4857" gradientUnits="userSpaceOnUse">
<stop stop-color="#925FE2"/>
<stop offset="1" stop-color="#DFE7F5"/>
</linearGradient>
<linearGradient id="paint8_linear_207_814" x1="68.0177" y1="35.0726" x2="73.0679" y2="55.5329" gradientUnits="userSpaceOnUse">
<stop stop-color="#925FE2"/>
<stop offset="1" stop-color="#E2D4F7"/>
</linearGradient>
<linearGradient id="paint9_linear_207_814" x1="22.9822" y1="38.8991" x2="22.9822" y2="49.4857" gradientUnits="userSpaceOnUse">
<stop stop-color="#925FE2"/>
<stop offset="1" stop-color="#E2D4F7"/>
</linearGradient>
<linearGradient id="paint10_linear_207_814" x1="68.0004" y1="27.4196" x2="80.2153" y2="52.7438" gradientUnits="userSpaceOnUse">
<stop stop-color="#925FE2"/>
<stop offset="1" stop-color="#E2D4F7"/>
</linearGradient>
<linearGradient id="paint11_linear_207_814" x1="68.0004" y1="27.4196" x2="68.0004" y2="38.0062" gradientUnits="userSpaceOnUse">
<stop stop-color="#925FE2"/>
<stop offset="1" stop-color="#DFE7F5"/>
</linearGradient>
<linearGradient id="paint12_linear_207_814" x1="68.0004" y1="23.593" x2="74.4023" y2="42.9148" gradientUnits="userSpaceOnUse">
<stop stop-color="#925FE2"/>
<stop offset="1" stop-color="#E2D4F7"/>
</linearGradient>
<linearGradient id="paint13_linear_207_814" x1="68.0004" y1="15.9745" x2="76.5642" y2="40.2094" gradientUnits="userSpaceOnUse">
<stop stop-color="#925FE2"/>
<stop offset="1" stop-color="#E2D4F7"/>
</linearGradient>
<linearGradient id="paint14_linear_207_814" x1="68.0004" y1="15.9745" x2="68.0004" y2="26.5611" gradientUnits="userSpaceOnUse">
<stop stop-color="#925FE2"/>
<stop offset="1" stop-color="#DFE7F5"/>
</linearGradient>
<linearGradient id="paint15_linear_207_814" x1="68.0004" y1="12.148" x2="72.293" y2="29.8322" gradientUnits="userSpaceOnUse">
<stop stop-color="#925FE2"/>
<stop offset="1" stop-color="#E2D4F7"/>
</linearGradient>
<linearGradient id="paint16_linear_207_814" x1="62.4119" y1="5.40052" x2="66.855" y2="35.4759" gradientUnits="userSpaceOnUse">
<stop stop-color="#925FE2"/>
<stop offset="1" stop-color="#E2D4F7"/>
</linearGradient>
<linearGradient id="paint17_linear_207_814" x1="62.4119" y1="5.40052" x2="62.4119" y2="15.9871" gradientUnits="userSpaceOnUse">
<stop stop-color="#925FE2"/>
<stop offset="1" stop-color="#DFE7F5"/>
</linearGradient>
<linearGradient id="paint18_linear_207_814" x1="62.4119" y1="1.57398" x2="64.5324" y2="22.4691" gradientUnits="userSpaceOnUse">
<stop stop-color="#925FE2"/>
<stop offset="1" stop-color="#E2D4F7"/>
</linearGradient>
</defs>
</svg>
