<svg width="106" height="106" viewBox="0 0 106 106" fill="none" xmlns="http://www.w3.org/2000/svg">
<g filter="url(#filter0_d_32_841)">
<path d="M92.1014 14.942C92.1014 14.2789 92.639 13.7413 93.3022 13.7413H100.299C100.962 13.7413 101.5 14.2789 101.5 14.942V100.103C101.5 100.235 101.392 100.343 101.26 100.343H92.3415C92.2089 100.343 92.1014 100.235 92.1014 100.103V14.942Z" fill="url(#paint0_linear_32_841)"/>
</g>
<g filter="url(#filter1_d_32_841)">
<path d="M79.0105 53.8791C79.0105 53.2159 79.5481 52.6783 80.2113 52.6783H87.2083C87.8715 52.6783 88.4091 53.2159 88.4091 53.8791V100.103C88.4091 100.235 88.3016 100.343 88.1689 100.343H79.2507C79.118 100.343 79.0105 100.235 79.0105 100.103V53.8791Z" fill="url(#paint1_linear_32_841)"/>
</g>
<g filter="url(#filter2_d_32_841)">
<path d="M65.9196 77.7113C65.9196 77.0481 66.4572 76.5105 67.1204 76.5105H74.1174C74.7806 76.5105 75.3182 77.0481 75.3182 77.7113V100.103C75.3182 100.235 75.2107 100.343 75.0781 100.343H66.1598C66.0271 100.343 65.9196 100.235 65.9196 100.103V77.7113Z" fill="url(#paint2_linear_32_841)"/>
</g>
<g filter="url(#filter3_d_32_841)">
<path d="M52.8287 64.9561C52.8287 64.2929 53.3663 63.7553 54.0294 63.7553H61.0265C61.6897 63.7553 62.2273 64.2929 62.2273 64.9561V100.103C62.2273 100.235 62.1198 100.343 61.9871 100.343H53.0688C52.9362 100.343 52.8287 100.235 52.8287 100.103V64.9561Z" fill="url(#paint3_linear_32_841)"/>
</g>
<g filter="url(#filter4_d_32_841)">
<path d="M39.7377 87.4455C39.7377 86.7824 40.2753 86.2448 40.9385 86.2448H47.9356C48.5987 86.2448 49.1363 86.7824 49.1363 87.4455V100.102C49.1363 100.235 49.0288 100.343 48.8962 100.343H39.9779C39.8453 100.343 39.7377 100.235 39.7377 100.102V87.4455Z" fill="url(#paint4_linear_32_841)"/>
</g>
<g filter="url(#filter5_d_32_841)">
<path d="M57.6951 33.2827C56.5406 27.4662 53.4579 22.2092 48.9455 18.3618C44.433 14.5144 38.7547 12.3016 32.8289 12.0812C26.903 11.8608 21.0761 13.6458 16.2903 17.1474C11.5046 20.649 8.03995 25.6625 6.45662 31.3772C4.87329 37.0918 5.26389 43.1735 7.56525 48.6387C9.8666 54.1039 13.9442 58.633 19.1385 61.4936C24.3328 64.3542 30.3403 65.3791 36.1892 64.4025C42.0382 63.4259 47.3868 60.5049 51.37 56.1118L31.8497 38.4126L57.6951 33.2827Z" fill="url(#paint5_linear_32_841)"/>
</g>
<g filter="url(#filter6_d_32_841)">
<path d="M66.0614 38.2448C66.7246 38.2448 67.2644 37.707 67.2418 37.0442C67.098 32.8253 66.1973 28.6632 64.5794 24.7572C62.8082 20.4811 60.212 16.5957 56.9393 13.323C53.6665 10.0502 49.7811 7.45406 45.505 5.68285C41.599 4.06493 37.4369 3.16424 33.218 3.02045C32.5552 2.99786 32.0175 3.5376 32.0175 4.20077L32.0175 38.2448H66.0614Z" fill="url(#paint6_linear_32_841)"/>
<path d="M67.1218 37.0483C67.1419 37.6405 66.6594 38.1247 66.0614 38.1247H32.1375L32.1375 4.20077C32.1375 3.6028 32.6217 3.12028 33.2139 3.14046C37.4184 3.28376 41.5664 4.18138 45.4591 5.79378C49.7206 7.55896 53.5927 10.1462 56.8544 13.4079C60.116 16.6695 62.7033 20.5416 64.4684 24.8031C66.0808 28.6958 66.9785 32.8438 67.1218 37.0483Z" stroke="#925FE2" stroke-width="0.240155"/>
</g>
<defs>
<filter id="filter0_d_32_841" x="89.2195" y="11.5799" width="16.6033" height="93.806" filterUnits="userSpaceOnUse" color-interpolation-filters="sRGB">
<feFlood flood-opacity="0" result="BackgroundImageFix"/>
<feColorMatrix in="SourceAlpha" type="matrix" values="0 0 0 0 0 0 0 0 0 0 0 0 0 0 0 0 0 0 127 0" result="hardAlpha"/>
<feOffset dx="0.720464" dy="1.44093"/>
<feGaussianBlur stdDeviation="1.80116"/>
<feComposite in2="hardAlpha" operator="out"/>
<feColorMatrix type="matrix" values="0 0 0 0 0.462745 0 0 0 0 0.556863 0 0 0 0 0.690196 0 0 0 0.25 0"/>
<feBlend mode="normal" in2="BackgroundImageFix" result="effect1_dropShadow_32_841"/>
<feBlend mode="normal" in="SourceGraphic" in2="effect1_dropShadow_32_841" result="shape"/>
</filter>
<filter id="filter1_d_32_841" x="76.1286" y="50.517" width="16.6033" height="54.869" filterUnits="userSpaceOnUse" color-interpolation-filters="sRGB">
<feFlood flood-opacity="0" result="BackgroundImageFix"/>
<feColorMatrix in="SourceAlpha" type="matrix" values="0 0 0 0 0 0 0 0 0 0 0 0 0 0 0 0 0 0 127 0" result="hardAlpha"/>
<feOffset dx="0.720464" dy="1.44093"/>
<feGaussianBlur stdDeviation="1.80116"/>
<feComposite in2="hardAlpha" operator="out"/>
<feColorMatrix type="matrix" values="0 0 0 0 0.462745 0 0 0 0 0.556863 0 0 0 0 0.690196 0 0 0 0.25 0"/>
<feBlend mode="normal" in2="BackgroundImageFix" result="effect1_dropShadow_32_841"/>
<feBlend mode="normal" in="SourceGraphic" in2="effect1_dropShadow_32_841" result="shape"/>
</filter>
<filter id="filter2_d_32_841" x="63.0378" y="74.3491" width="16.6033" height="31.0368" filterUnits="userSpaceOnUse" color-interpolation-filters="sRGB">
<feFlood flood-opacity="0" result="BackgroundImageFix"/>
<feColorMatrix in="SourceAlpha" type="matrix" values="0 0 0 0 0 0 0 0 0 0 0 0 0 0 0 0 0 0 127 0" result="hardAlpha"/>
<feOffset dx="0.720464" dy="1.44093"/>
<feGaussianBlur stdDeviation="1.80116"/>
<feComposite in2="hardAlpha" operator="out"/>
<feColorMatrix type="matrix" values="0 0 0 0 0.462745 0 0 0 0 0.556863 0 0 0 0 0.690196 0 0 0 0.25 0"/>
<feBlend mode="normal" in2="BackgroundImageFix" result="effect1_dropShadow_32_841"/>
<feBlend mode="normal" in="SourceGraphic" in2="effect1_dropShadow_32_841" result="shape"/>
</filter>
<filter id="filter3_d_32_841" x="49.9468" y="61.5939" width="16.6033" height="43.792" filterUnits="userSpaceOnUse" color-interpolation-filters="sRGB">
<feFlood flood-opacity="0" result="BackgroundImageFix"/>
<feColorMatrix in="SourceAlpha" type="matrix" values="0 0 0 0 0 0 0 0 0 0 0 0 0 0 0 0 0 0 127 0" result="hardAlpha"/>
<feOffset dx="0.720464" dy="1.44093"/>
<feGaussianBlur stdDeviation="1.80116"/>
<feComposite in2="hardAlpha" operator="out"/>
<feColorMatrix type="matrix" values="0 0 0 0 0.462745 0 0 0 0 0.556863 0 0 0 0 0.690196 0 0 0 0.25 0"/>
<feBlend mode="normal" in2="BackgroundImageFix" result="effect1_dropShadow_32_841"/>
<feBlend mode="normal" in="SourceGraphic" in2="effect1_dropShadow_32_841" result="shape"/>
</filter>
<filter id="filter4_d_32_841" x="36.8559" y="84.0834" width="16.6033" height="21.3025" filterUnits="userSpaceOnUse" color-interpolation-filters="sRGB">
<feFlood flood-opacity="0" result="BackgroundImageFix"/>
<feColorMatrix in="SourceAlpha" type="matrix" values="0 0 0 0 0 0 0 0 0 0 0 0 0 0 0 0 0 0 127 0" result="hardAlpha"/>
<feOffset dx="0.720464" dy="1.44093"/>
<feGaussianBlur stdDeviation="1.80116"/>
<feComposite in2="hardAlpha" operator="out"/>
<feColorMatrix type="matrix" values="0 0 0 0 0.462745 0 0 0 0 0.556863 0 0 0 0 0.690196 0 0 0 0.25 0"/>
<feBlend mode="normal" in2="BackgroundImageFix" result="effect1_dropShadow_32_841"/>
<feBlend mode="normal" in="SourceGraphic" in2="effect1_dropShadow_32_841" result="shape"/>
</filter>
<filter id="filter5_d_32_841" x="0.696908" y="9.66143" width="61.8013" height="62.3055" filterUnits="userSpaceOnUse" color-interpolation-filters="sRGB">
<feFlood flood-opacity="0" result="BackgroundImageFix"/>
<feColorMatrix in="SourceAlpha" type="matrix" values="0 0 0 0 0 0 0 0 0 0 0 0 0 0 0 0 0 0 127 0" result="hardAlpha"/>
<feOffset dy="2.40155"/>
<feGaussianBlur stdDeviation="2.40155"/>
<feComposite in2="hardAlpha" operator="out"/>
<feColorMatrix type="matrix" values="0 0 0 0 0.462745 0 0 0 0 0.556863 0 0 0 0 0.690196 0 0 0 0.25 0"/>
<feBlend mode="normal" in2="BackgroundImageFix" result="effect1_dropShadow_32_841"/>
<feBlend mode="normal" in="SourceGraphic" in2="effect1_dropShadow_32_841" result="shape"/>
</filter>
<filter id="filter6_d_32_841" x="28.175" y="0.13792" width="42.4296" height="42.4296" filterUnits="userSpaceOnUse" color-interpolation-filters="sRGB">
<feFlood flood-opacity="0" result="BackgroundImageFix"/>
<feColorMatrix in="SourceAlpha" type="matrix" values="0 0 0 0 0 0 0 0 0 0 0 0 0 0 0 0 0 0 127 0" result="hardAlpha"/>
<feOffset dx="-0.240155" dy="0.720464"/>
<feGaussianBlur stdDeviation="1.80116"/>
<feComposite in2="hardAlpha" operator="out"/>
<feColorMatrix type="matrix" values="0 0 0 0 0.0925694 0 0 0 0 0.138983 0 0 0 0 0.258333 0 0 0 0.1 0"/>
<feBlend mode="normal" in2="BackgroundImageFix" result="effect1_dropShadow_32_841"/>
<feBlend mode="normal" in="SourceGraphic" in2="effect1_dropShadow_32_841" result="shape"/>
</filter>
<linearGradient id="paint0_linear_32_841" x1="96.8007" y1="13.7413" x2="96.8007" y2="100.343" gradientUnits="userSpaceOnUse">
<stop stop-color="#925FE2"/>
<stop offset="1" stop-color="#DFCFF7"/>
</linearGradient>
<linearGradient id="paint1_linear_32_841" x1="83.7098" y1="52.6783" x2="83.7098" y2="100.343" gradientUnits="userSpaceOnUse">
<stop stop-color="#925FE2"/>
<stop offset="1" stop-color="#DFCFF7"/>
</linearGradient>
<linearGradient id="paint2_linear_32_841" x1="70.6189" y1="76.5105" x2="70.6189" y2="100.343" gradientUnits="userSpaceOnUse">
<stop stop-color="#925FE2"/>
<stop offset="1" stop-color="#DFCFF7"/>
</linearGradient>
<linearGradient id="paint3_linear_32_841" x1="57.528" y1="63.7553" x2="57.528" y2="100.343" gradientUnits="userSpaceOnUse">
<stop stop-color="#925FE2"/>
<stop offset="1" stop-color="#DFCFF7"/>
</linearGradient>
<linearGradient id="paint4_linear_32_841" x1="44.437" y1="86.2448" x2="44.437" y2="100.343" gradientUnits="userSpaceOnUse">
<stop stop-color="#925FE2"/>
<stop offset="1" stop-color="#DFCFF7"/>
</linearGradient>
<linearGradient id="paint5_linear_32_841" x1="31.8497" y1="12.063" x2="31.5" y2="77" gradientUnits="userSpaceOnUse">
<stop stop-color="#925FE2"/>
<stop offset="1" stop-color="#E2D4F7"/>
</linearGradient>
<linearGradient id="paint6_linear_32_841" x1="49.6398" y1="3" x2="49.5" y2="49" gradientUnits="userSpaceOnUse">
<stop stop-color="#925FE2"/>
<stop offset="0.901042" stop-color="#E1D2F7"/>
</linearGradient>
</defs>
</svg>
