<svg width="25" height="24" viewBox="0 0 25 24" fill="none" xmlns="http://www.w3.org/2000/svg">
<path fill-rule="evenodd" clip-rule="evenodd" d="M7.5 8C7.23478 8 6.98043 8.10536 6.79289 8.29289C6.60536 8.48043 6.5 8.73478 6.5 9C6.5 9.26522 6.60536 9.51957 6.79289 9.70711C6.98043 9.89464 7.23478 10 7.5 10H17.5C17.7652 10 18.0196 9.89464 18.2071 9.70711C18.3946 9.51957 18.5 9.26522 18.5 9C18.5 8.73478 18.3946 8.48043 18.2071 8.29289C18.0196 8.10536 17.7652 8 17.5 8H7.5ZM7.5 11C7.23478 11 6.98043 11.1054 6.79289 11.2929C6.60536 11.4804 6.5 11.7348 6.5 12C6.5 12.2652 6.60536 12.5196 6.79289 12.7071C6.98043 12.8946 7.23478 13 7.5 13H13.5C13.7652 13 14.0196 12.8946 14.2071 12.7071C14.3946 12.5196 14.5 12.2652 14.5 12C14.5 11.7348 14.3946 11.4804 14.2071 11.2929C14.0196 11.1054 13.7652 11 13.5 11H7.5ZM7.434 2H17.566C18.452 2 19.216 2 19.828 2.082C20.483 2.17 21.112 2.369 21.621 2.879C22.131 3.389 22.33 4.017 22.418 4.672C22.5 5.284 22.5 6.048 22.5 6.934V13.066C22.5 13.952 22.5 14.716 22.418 15.328C22.33 15.983 22.131 16.612 21.621 17.121C21.111 17.631 20.483 17.83 19.828 17.918C19.216 18 18.452 18 17.566 18H15.554L13.484 21.312C13.3798 21.479 13.2347 21.6167 13.0626 21.7122C12.8905 21.8076 12.6968 21.8577 12.5 21.8577C12.3032 21.8577 12.1095 21.8076 11.9374 21.7122C11.7653 21.6167 11.6202 21.479 11.516 21.312L9.446 18H7.434C6.548 18 5.784 18 5.172 17.918C4.517 17.83 3.888 17.631 3.379 17.121C2.869 16.611 2.67 15.983 2.582 15.328C2.5 14.716 2.5 13.952 2.5 13.066V6.934C2.5 6.048 2.5 5.284 2.582 4.672C2.67 4.017 2.869 3.388 3.379 2.879C3.889 2.369 4.517 2.17 5.172 2.082C5.784 2 6.548 2 7.434 2Z" fill="white" fill-opacity="0.5"/>
</svg>
