<svg width="95" height="90" viewBox="0 0 95 90" fill="none" xmlns="http://www.w3.org/2000/svg">
<g filter="url(#filter0_d_207_884)">
<path d="M60.0238 83.1137V77.7277C71.5961 80.4412 78.4365 80.1569 90.941 77.7245V83.1029C90.941 83.4444 90.698 83.741 90.363 83.8107C78.4655 86.288 71.7517 86.3266 60.5894 83.8186C60.2602 83.7446 60.0238 83.4508 60.0238 83.1137Z" fill="url(#paint0_linear_207_884)" stroke="url(#paint1_linear_207_884)" stroke-width="0.131615"/>
<g filter="url(#filter1_d_207_884)">
<ellipse cx="75.4824" cy="77.4988" rx="15.5244" ry="2.78388" fill="url(#paint2_linear_207_884)"/>
<path d="M90.941 77.4988C90.941 77.6643 90.8477 77.8354 90.648 78.0104C90.4487 78.185 90.1509 78.3566 89.7611 78.5218C88.9822 78.8521 87.851 79.151 86.4482 79.4025C83.6437 79.9054 79.7667 80.2169 75.4824 80.2169C71.1981 80.2169 67.3211 79.9054 64.5166 79.4025C63.1138 79.151 61.9826 78.8521 61.2037 78.5218C60.8139 78.3566 60.5161 78.185 60.3168 78.0104C60.1171 77.8354 60.0238 77.6643 60.0238 77.4988C60.0238 77.3334 60.1171 77.1622 60.3168 76.9873C60.5161 76.8126 60.8139 76.641 61.2037 76.4758C61.9826 76.1455 63.1138 75.8466 64.5166 75.5951C67.3211 75.0922 71.1981 74.7807 75.4824 74.7807C79.7667 74.7807 83.6437 75.0922 86.4482 75.5951C87.851 75.8466 88.9822 76.1455 89.7611 76.4758C90.1509 76.641 90.4487 76.8126 90.648 76.9873C90.8477 77.1622 90.941 77.3334 90.941 77.4988Z" stroke="white" stroke-opacity="0.2" stroke-width="0.131615"/>
</g>
</g>
<g filter="url(#filter2_d_207_884)">
<path d="M24.9118 83.1137V77.7277C36.4841 80.4412 43.3244 80.1569 55.8289 77.7245V83.1029C55.8289 83.4444 55.5859 83.741 55.251 83.8107C43.3534 86.288 36.6397 86.3266 25.4774 83.8186C25.1481 83.7446 24.9118 83.4508 24.9118 83.1137Z" fill="url(#paint3_linear_207_884)" stroke="url(#paint4_linear_207_884)" stroke-width="0.131615"/>
<g filter="url(#filter3_d_207_884)">
<ellipse cx="40.3703" cy="77.4988" rx="15.5244" ry="2.78388" fill="url(#paint5_linear_207_884)"/>
<path d="M55.8289 77.4988C55.8289 77.6643 55.7356 77.8354 55.536 78.0104C55.3366 78.185 55.0388 78.3566 54.6491 78.5218C53.8701 78.8521 52.7389 79.151 51.3361 79.4025C48.5316 79.9054 44.6546 80.2169 40.3703 80.2169C36.0861 80.2169 32.209 79.9054 29.4046 79.4025C28.0018 79.151 26.8706 78.8521 26.0916 78.5218C25.7019 78.3566 25.404 78.185 25.2047 78.0104C25.005 77.8354 24.9118 77.6643 24.9118 77.4988C24.9118 77.3334 25.005 77.1622 25.2047 76.9873C25.404 76.8126 25.7019 76.641 26.0916 76.4758C26.8706 76.1455 28.0018 75.8466 29.4046 75.5951C32.209 75.0922 36.0861 74.7807 40.3703 74.7807C44.6546 74.7807 48.5316 75.0922 51.3361 75.5951C52.7389 75.8466 53.8701 76.1455 54.6491 76.4758C55.0388 76.641 55.3366 76.8126 55.536 76.9873C55.7356 77.1622 55.8289 77.3334 55.8289 77.4988Z" stroke="white" stroke-opacity="0.2" stroke-width="0.131615"/>
</g>
</g>
<g filter="url(#filter4_d_207_884)">
<path d="M60.0238 74.2981V68.912C71.5961 71.6255 78.4365 71.3413 90.941 68.9088V74.2872C90.941 74.6288 90.698 74.9253 90.363 74.9951C78.4655 77.4723 71.7517 77.511 60.5894 75.003C60.2602 74.929 60.0238 74.6352 60.0238 74.2981Z" fill="url(#paint6_linear_207_884)" stroke="url(#paint7_linear_207_884)" stroke-width="0.131615"/>
<g filter="url(#filter5_d_207_884)">
<ellipse cx="75.4824" cy="68.6832" rx="15.5244" ry="2.78388" fill="url(#paint8_linear_207_884)"/>
<path d="M90.941 68.6832C90.941 68.8486 90.8477 69.0197 90.648 69.1947C90.4487 69.3694 90.1509 69.541 89.7611 69.7062C88.9822 70.0364 87.851 70.3353 86.4482 70.5869C83.6437 71.0898 79.7667 71.4012 75.4824 71.4012C71.1981 71.4012 67.3211 71.0898 64.5166 70.5869C63.1138 70.3353 61.9826 70.0364 61.2037 69.7062C60.8139 69.541 60.5161 69.3694 60.3168 69.1947C60.1171 69.0197 60.0238 68.8486 60.0238 68.6832C60.0238 68.5177 60.1171 68.3466 60.3168 68.1716C60.5161 67.9969 60.8139 67.8254 61.2037 67.6601C61.9826 67.3299 63.1138 67.031 64.5166 66.7794C67.3211 66.2765 71.1981 65.9651 75.4824 65.9651C79.7667 65.9651 83.6437 66.2765 86.4482 66.7794C87.851 67.031 88.9822 67.3299 89.7611 67.6601C90.1509 67.8254 90.4487 67.9969 90.648 68.1716C90.8477 68.3466 90.941 68.5177 90.941 68.6832Z" stroke="white" stroke-opacity="0.2" stroke-width="0.131615"/>
</g>
</g>
<g filter="url(#filter6_d_207_884)">
<path d="M24.9118 74.2981V68.912C36.4841 71.6255 43.3244 71.3413 55.8289 68.9088V74.2872C55.8289 74.6288 55.5859 74.9253 55.251 74.9951C43.3534 77.4723 36.6397 77.511 25.4774 75.003C25.1481 74.929 24.9118 74.6352 24.9118 74.2981Z" fill="url(#paint9_linear_207_884)" stroke="url(#paint10_linear_207_884)" stroke-width="0.131615"/>
<g filter="url(#filter7_d_207_884)">
<ellipse cx="40.3703" cy="68.6832" rx="15.5244" ry="2.78388" fill="url(#paint11_linear_207_884)"/>
<path d="M55.8289 68.6832C55.8289 68.8486 55.7356 69.0197 55.536 69.1947C55.3366 69.3694 55.0388 69.541 54.6491 69.7062C53.8701 70.0364 52.7389 70.3353 51.3361 70.5869C48.5316 71.0898 44.6546 71.4012 40.3703 71.4012C36.0861 71.4012 32.209 71.0898 29.4046 70.5869C28.0018 70.3353 26.8706 70.0364 26.0916 69.7062C25.7019 69.541 25.404 69.3694 25.2047 69.1947C25.005 69.0197 24.9118 68.8486 24.9118 68.6832C24.9118 68.5177 25.005 68.3466 25.2047 68.1716C25.404 67.9969 25.7019 67.8254 26.0916 67.6601C26.8706 67.3299 28.0018 67.031 29.4046 66.7794C32.209 66.2765 36.0861 65.9651 40.3703 65.9651C44.6546 65.9651 48.5316 66.2765 51.3361 66.7794C52.7389 67.031 53.8701 67.3299 54.6491 67.6601C55.0388 67.8254 55.3366 67.9969 55.536 68.1716C55.7356 68.3466 55.8289 68.5177 55.8289 68.6832Z" stroke="white" stroke-opacity="0.2" stroke-width="0.131615"/>
</g>
<g filter="url(#filter8_f_207_884)">
<ellipse cx="40.593" cy="68.7958" rx="8.33592" ry="0.629687" fill="#925FE2"/>
</g>
</g>
<g filter="url(#filter9_d_207_884)">
<path d="M60.0103 65.5091V60.123C71.5826 62.8365 78.4229 62.5523 90.9274 60.1198V65.4982C90.9274 65.8397 90.6844 66.1363 90.3495 66.206C78.4519 68.6833 71.7382 68.722 60.5759 66.2139C60.2466 66.14 60.0103 65.8461 60.0103 65.5091Z" fill="url(#paint12_linear_207_884)" stroke="url(#paint13_linear_207_884)" stroke-width="0.131615"/>
<g filter="url(#filter10_d_207_884)">
<ellipse cx="75.4688" cy="59.8941" rx="15.5244" ry="2.78388" fill="url(#paint14_linear_207_884)"/>
<path d="M90.9274 59.8941C90.9274 60.0595 90.8341 60.2307 90.6345 60.4056C90.4351 60.5803 90.1373 60.7519 89.7476 60.9171C88.9686 61.2474 87.8374 61.5463 86.4346 61.7978C83.6302 62.3007 79.7531 62.6121 75.4689 62.6121C71.1846 62.6121 67.3075 62.3007 64.5031 61.7978C63.1003 61.5463 61.9691 61.2474 61.1901 60.9171C60.8004 60.7519 60.5026 60.5803 60.3032 60.4056C60.1036 60.2307 60.0103 60.0595 60.0103 59.8941C60.0103 59.7286 60.1036 59.5575 60.3032 59.3825C60.5026 59.2078 60.8004 59.0363 61.1901 58.8711C61.9691 58.5408 63.1003 58.2419 64.5031 57.9904C67.3075 57.4874 71.1846 57.176 75.4689 57.176C79.7531 57.176 83.6302 57.4874 86.4346 57.9904C87.8374 58.2419 88.9686 58.5408 89.7476 58.8711C90.1373 59.0363 90.4351 59.2078 90.6345 59.3825C90.8341 59.5575 90.9274 59.7286 90.9274 59.8941Z" stroke="white" stroke-opacity="0.2" stroke-width="0.131615"/>
</g>
</g>
<g filter="url(#filter11_d_207_884)">
<path d="M60.0103 56.7465V51.3604C71.5826 54.0739 78.4229 53.7897 90.9274 51.3572V56.7356C90.9274 57.0771 90.6844 57.3737 90.3495 57.4434C78.4519 59.9207 71.7382 59.9594 60.5759 57.4513C60.2466 57.3774 60.0103 57.0835 60.0103 56.7465Z" fill="url(#paint15_linear_207_884)" stroke="url(#paint16_linear_207_884)" stroke-width="0.131615"/>
<g filter="url(#filter12_d_207_884)">
<ellipse cx="75.4688" cy="51.1315" rx="15.5244" ry="2.78388" fill="url(#paint17_linear_207_884)"/>
<path d="M90.9274 51.1315C90.9274 51.297 90.8341 51.4681 90.6345 51.6431C90.4351 51.8178 90.1373 51.9893 89.7476 52.1546C88.9686 52.4848 87.8374 52.7837 86.4346 53.0353C83.6302 53.5382 79.7531 53.8496 75.4689 53.8496C71.1846 53.8496 67.3075 53.5382 64.5031 53.0353C63.1003 52.7837 61.9691 52.4848 61.1901 52.1546C60.8004 51.9893 60.5026 51.8178 60.3032 51.6431C60.1036 51.4681 60.0103 51.297 60.0103 51.1315C60.0103 50.9661 60.1036 50.795 60.3032 50.62C60.5026 50.4453 60.8004 50.2737 61.1901 50.1085C61.9691 49.7783 63.1003 49.4794 64.5031 49.2278C67.3075 48.7249 71.1846 48.4135 75.4689 48.4135C79.7531 48.4135 83.6302 48.7249 86.4346 49.2278C87.8374 49.4794 88.9686 49.7783 89.7476 50.1085C90.1373 50.2737 90.4351 50.4453 90.6345 50.62C90.8341 50.795 90.9274 50.9661 90.9274 51.1315Z" stroke="white" stroke-opacity="0.2" stroke-width="0.131615"/>
</g>
</g>
<g filter="url(#filter13_d_207_884)">
<path d="M22.6719 27.5872C19.5847 28.3085 17.2026 28.2785 13.6378 27.704C13.3156 27.652 13.0204 27.8993 13.0204 28.2256V58.798C13.0204 59.0691 13.2269 59.2963 13.497 59.3203C16.6171 59.5978 19.1034 59.5764 22.9467 59.3866C24.3339 59.3182 25.717 59.1347 27.0684 58.8141C36.8445 56.4945 42.6383 53.5251 50.5354 46.7278C52.0675 45.4091 53.7936 44.2591 55.7703 43.8355C58.1841 43.3181 60.3471 43.4448 63.5369 44.3777C64.0512 44.5281 64.5749 44.1488 64.5749 43.613V13.2329C64.5749 12.8166 64.2486 12.4713 63.833 12.4464C54.1114 11.8634 49.9527 12.551 42.7114 14.8782C35.9484 17.2932 32.5238 19.691 26.7831 25.2262C25.6256 26.3423 24.2377 27.2213 22.6719 27.5872Z" fill="url(#paint18_linear_207_884)"/>
<path d="M22.6719 27.5872C19.5847 28.3085 17.2026 28.2785 13.6378 27.704C13.3156 27.652 13.0204 27.8993 13.0204 28.2256V58.798C13.0204 59.0691 13.2269 59.2963 13.497 59.3203C16.6171 59.5978 19.1034 59.5764 22.9467 59.3866C24.3339 59.3182 25.717 59.1347 27.0684 58.8141C36.8445 56.4945 42.6383 53.5251 50.5354 46.7278C52.0675 45.4091 53.7936 44.2591 55.7703 43.8355C58.1841 43.3181 60.3471 43.4448 63.5369 44.3777C64.0512 44.5281 64.5749 44.1488 64.5749 43.613V13.2329C64.5749 12.8166 64.2486 12.4713 63.833 12.4464C54.1114 11.8634 49.9527 12.551 42.7114 14.8782C35.9484 17.2932 32.5238 19.691 26.7831 25.2262C25.6256 26.3423 24.2377 27.2213 22.6719 27.5872Z" stroke="url(#paint19_linear_207_884)" stroke-width="0.263229"/>
</g>
<g filter="url(#filter14_d_207_884)">
<ellipse cx="58.6366" cy="37.2759" rx="2.02439" ry="1.98796" fill="url(#paint20_linear_207_884)"/>
</g>
<g filter="url(#filter15_d_207_884)">
<ellipse cx="18.6886" cy="34.0951" rx="2.02439" ry="1.98796" fill="url(#paint21_linear_207_884)"/>
</g>
<g filter="url(#filter16_dd_207_884)">
<ellipse cx="38.6626" cy="35.6855" rx="9.04228" ry="8.87957" fill="url(#paint22_linear_207_884)" shape-rendering="crispEdges"/>
</g>
<g filter="url(#filter17_d_207_884)">
<path d="M35.8085 31.4722C36.151 31.0877 36.472 30.7582 36.8493 30.3987C37.261 30.0064 37.9049 30.0061 38.331 30.3827C38.671 30.6832 38.7292 31.1987 38.4416 31.5496C38.2668 31.7628 38.0994 31.9482 37.9121 32.1282C37.5548 32.4718 37.3131 32.9281 37.3131 33.4239V33.4806C37.3131 33.9309 37.589 34.3379 38.0125 34.491C38.1043 34.5242 38.1927 34.5554 38.2788 34.585C39.3171 34.9424 40.4183 35.2399 41.2248 35.985C41.3382 36.0898 41.4451 36.1984 41.5487 36.3142C42.0003 36.819 42.1716 37.5041 42.1716 38.1815C42.1716 38.9705 41.9386 39.7568 41.4078 40.3407C41.0415 40.7435 40.6759 41.0669 40.2236 41.3996C39.8051 41.7074 39.2221 41.614 38.8896 41.215C38.5368 40.7916 38.5818 40.165 38.9914 39.7963L39.4802 39.3563C39.7388 39.1235 39.9371 38.8191 39.9664 38.4725C39.9681 38.4528 39.9695 38.4331 39.9707 38.4135C40.0099 37.7821 39.5267 37.263 38.9497 37.0035C38.1581 36.6474 37.4802 36.3112 36.7053 35.8923C35.7248 35.3621 35.0603 34.4274 35.0937 33.3132C35.1133 32.6572 35.372 31.9623 35.8085 31.4722Z" fill="url(#paint23_linear_207_884)"/>
<path d="M35.8576 31.516C36.1989 31.133 36.5186 30.8047 36.8947 30.4464C37.2807 30.0786 37.8859 30.0772 38.2874 30.432C38.6027 30.7107 38.6544 31.1862 38.3907 31.5079C38.2172 31.7196 38.0515 31.9029 37.8665 32.0808C37.4995 32.4336 37.2473 32.9062 37.2473 33.4239V33.4806C37.2473 33.9576 37.5397 34.3901 37.9901 34.5529C38.0822 34.5861 38.171 34.6175 38.2574 34.6473C38.3922 34.6937 38.5277 34.7389 38.6631 34.7842C39.5776 35.09 40.4888 35.3946 41.1802 36.0333C41.292 36.1367 41.3974 36.2439 41.4996 36.3581C41.9368 36.8468 42.1058 37.5139 42.1058 38.1815C42.1058 38.9584 41.8763 39.7274 41.3591 40.2964C40.9961 40.6957 40.6338 41.0162 40.1846 41.3466C39.7964 41.6321 39.2522 41.5473 38.9402 41.1728C38.61 40.7766 38.6521 40.1903 39.0354 39.8452L39.5243 39.4052C39.7906 39.1654 40.0008 38.8467 40.032 38.478C40.0337 38.4578 40.0352 38.4377 40.0364 38.4175C40.078 37.7473 39.5661 37.2085 38.9767 36.9434C38.1867 36.5881 37.5101 36.2525 36.7366 35.8344C35.773 35.3134 35.1269 34.3993 35.1594 33.3151C35.1787 32.6734 35.4321 31.9937 35.8576 31.516Z" stroke="white" stroke-opacity="0.33" stroke-width="0.131615"/>
<rect x="39.6074" y="28.3963" width="2.15935" height="4.77111" rx="1.07967" fill="url(#paint24_linear_207_884)"/>
<rect x="39.6732" y="28.4621" width="2.02774" height="4.6395" rx="1.01387" stroke="white" stroke-opacity="0.33" stroke-width="0.131615"/>
<rect x="35.5586" y="38.4687" width="2.15935" height="4.77111" rx="1.07967" fill="url(#paint25_linear_207_884)"/>
<rect x="35.6244" y="38.5345" width="2.02774" height="4.6395" rx="1.01387" stroke="white" stroke-opacity="0.33" stroke-width="0.131615"/>
</g>
<defs>
<filter id="filter0_d_207_884" x="58.9051" y="73.9252" width="35.787" height="15.7732" filterUnits="userSpaceOnUse" color-interpolation-filters="sRGB">
<feFlood flood-opacity="0" result="BackgroundImageFix"/>
<feColorMatrix in="SourceAlpha" type="matrix" values="0 0 0 0 0 0 0 0 0 0 0 0 0 0 0 0 0 0 127 0" result="hardAlpha"/>
<feOffset dx="1.31615" dy="1.57937"/>
<feGaussianBlur stdDeviation="1.18453"/>
<feComposite in2="hardAlpha" operator="out"/>
<feColorMatrix type="matrix" values="0 0 0 0 0.228976 0 0 0 0 0.34229 0 0 0 0 0.504167 0 0 0 0.15 0"/>
<feBlend mode="normal" in2="BackgroundImageFix" result="effect1_dropShadow_207_884"/>
<feBlend mode="normal" in="SourceGraphic" in2="effect1_dropShadow_207_884" result="shape"/>
</filter>
<filter id="filter1_d_207_884" x="57.8522" y="73.3988" width="35.2605" height="9.77941" filterUnits="userSpaceOnUse" color-interpolation-filters="sRGB">
<feFlood flood-opacity="0" result="BackgroundImageFix"/>
<feColorMatrix in="SourceAlpha" type="matrix" values="0 0 0 0 0 0 0 0 0 0 0 0 0 0 0 0 0 0 127 0" result="hardAlpha"/>
<feOffset dy="0.789687"/>
<feGaussianBlur stdDeviation="1.05292"/>
<feComposite in2="hardAlpha" operator="out"/>
<feColorMatrix type="matrix" values="0 0 0 0 0.6825 0 0 0 0 0.782885 0 0 0 0 0.9 0 0 0 0.5 0"/>
<feBlend mode="normal" in2="BackgroundImageFix" result="effect1_dropShadow_207_884"/>
<feBlend mode="normal" in="SourceGraphic" in2="effect1_dropShadow_207_884" result="shape"/>
</filter>
<filter id="filter2_d_207_884" x="23.793" y="73.9252" width="35.787" height="15.7732" filterUnits="userSpaceOnUse" color-interpolation-filters="sRGB">
<feFlood flood-opacity="0" result="BackgroundImageFix"/>
<feColorMatrix in="SourceAlpha" type="matrix" values="0 0 0 0 0 0 0 0 0 0 0 0 0 0 0 0 0 0 127 0" result="hardAlpha"/>
<feOffset dx="1.31615" dy="1.57937"/>
<feGaussianBlur stdDeviation="1.18453"/>
<feComposite in2="hardAlpha" operator="out"/>
<feColorMatrix type="matrix" values="0 0 0 0 0.228976 0 0 0 0 0.34229 0 0 0 0 0.504167 0 0 0 0.15 0"/>
<feBlend mode="normal" in2="BackgroundImageFix" result="effect1_dropShadow_207_884"/>
<feBlend mode="normal" in="SourceGraphic" in2="effect1_dropShadow_207_884" result="shape"/>
</filter>
<filter id="filter3_d_207_884" x="22.7401" y="73.3988" width="35.2605" height="9.77941" filterUnits="userSpaceOnUse" color-interpolation-filters="sRGB">
<feFlood flood-opacity="0" result="BackgroundImageFix"/>
<feColorMatrix in="SourceAlpha" type="matrix" values="0 0 0 0 0 0 0 0 0 0 0 0 0 0 0 0 0 0 127 0" result="hardAlpha"/>
<feOffset dy="0.789687"/>
<feGaussianBlur stdDeviation="1.05292"/>
<feComposite in2="hardAlpha" operator="out"/>
<feColorMatrix type="matrix" values="0 0 0 0 0.6825 0 0 0 0 0.782885 0 0 0 0 0.9 0 0 0 0.5 0"/>
<feBlend mode="normal" in2="BackgroundImageFix" result="effect1_dropShadow_207_884"/>
<feBlend mode="normal" in="SourceGraphic" in2="effect1_dropShadow_207_884" result="shape"/>
</filter>
<filter id="filter4_d_207_884" x="58.9051" y="65.1096" width="35.787" height="15.7732" filterUnits="userSpaceOnUse" color-interpolation-filters="sRGB">
<feFlood flood-opacity="0" result="BackgroundImageFix"/>
<feColorMatrix in="SourceAlpha" type="matrix" values="0 0 0 0 0 0 0 0 0 0 0 0 0 0 0 0 0 0 127 0" result="hardAlpha"/>
<feOffset dx="1.31615" dy="1.57937"/>
<feGaussianBlur stdDeviation="1.18453"/>
<feComposite in2="hardAlpha" operator="out"/>
<feColorMatrix type="matrix" values="0 0 0 0 0.228976 0 0 0 0 0.34229 0 0 0 0 0.504167 0 0 0 0.15 0"/>
<feBlend mode="normal" in2="BackgroundImageFix" result="effect1_dropShadow_207_884"/>
<feBlend mode="normal" in="SourceGraphic" in2="effect1_dropShadow_207_884" result="shape"/>
</filter>
<filter id="filter5_d_207_884" x="57.8522" y="64.5831" width="35.2605" height="9.77941" filterUnits="userSpaceOnUse" color-interpolation-filters="sRGB">
<feFlood flood-opacity="0" result="BackgroundImageFix"/>
<feColorMatrix in="SourceAlpha" type="matrix" values="0 0 0 0 0 0 0 0 0 0 0 0 0 0 0 0 0 0 127 0" result="hardAlpha"/>
<feOffset dy="0.789687"/>
<feGaussianBlur stdDeviation="1.05292"/>
<feComposite in2="hardAlpha" operator="out"/>
<feColorMatrix type="matrix" values="0 0 0 0 0.6825 0 0 0 0 0.782885 0 0 0 0 0.9 0 0 0 0.5 0"/>
<feBlend mode="normal" in2="BackgroundImageFix" result="effect1_dropShadow_207_884"/>
<feBlend mode="normal" in="SourceGraphic" in2="effect1_dropShadow_207_884" result="shape"/>
</filter>
<filter id="filter6_d_207_884" x="23.793" y="65.1096" width="35.787" height="15.7732" filterUnits="userSpaceOnUse" color-interpolation-filters="sRGB">
<feFlood flood-opacity="0" result="BackgroundImageFix"/>
<feColorMatrix in="SourceAlpha" type="matrix" values="0 0 0 0 0 0 0 0 0 0 0 0 0 0 0 0 0 0 127 0" result="hardAlpha"/>
<feOffset dx="1.31615" dy="1.57937"/>
<feGaussianBlur stdDeviation="1.18453"/>
<feComposite in2="hardAlpha" operator="out"/>
<feColorMatrix type="matrix" values="0 0 0 0 0.228976 0 0 0 0 0.34229 0 0 0 0 0.504167 0 0 0 0.15 0"/>
<feBlend mode="normal" in2="BackgroundImageFix" result="effect1_dropShadow_207_884"/>
<feBlend mode="normal" in="SourceGraphic" in2="effect1_dropShadow_207_884" result="shape"/>
</filter>
<filter id="filter7_d_207_884" x="22.7401" y="64.5831" width="35.2605" height="9.77941" filterUnits="userSpaceOnUse" color-interpolation-filters="sRGB">
<feFlood flood-opacity="0" result="BackgroundImageFix"/>
<feColorMatrix in="SourceAlpha" type="matrix" values="0 0 0 0 0 0 0 0 0 0 0 0 0 0 0 0 0 0 127 0" result="hardAlpha"/>
<feOffset dy="0.789687"/>
<feGaussianBlur stdDeviation="1.05292"/>
<feComposite in2="hardAlpha" operator="out"/>
<feColorMatrix type="matrix" values="0 0 0 0 0.6825 0 0 0 0 0.782885 0 0 0 0 0.9 0 0 0 0.5 0"/>
<feBlend mode="normal" in2="BackgroundImageFix" result="effect1_dropShadow_207_884"/>
<feBlend mode="normal" in="SourceGraphic" in2="effect1_dropShadow_207_884" result="shape"/>
</filter>
<filter id="filter8_f_207_884" x="26.9925" y="62.9016" width="27.201" height="11.7885" filterUnits="userSpaceOnUse" color-interpolation-filters="sRGB">
<feFlood flood-opacity="0" result="BackgroundImageFix"/>
<feBlend mode="normal" in="SourceGraphic" in2="BackgroundImageFix" result="shape"/>
<feGaussianBlur stdDeviation="2.63229" result="effect1_foregroundBlur_207_884"/>
</filter>
<filter id="filter9_d_207_884" x="58.8915" y="56.3205" width="35.787" height="15.7732" filterUnits="userSpaceOnUse" color-interpolation-filters="sRGB">
<feFlood flood-opacity="0" result="BackgroundImageFix"/>
<feColorMatrix in="SourceAlpha" type="matrix" values="0 0 0 0 0 0 0 0 0 0 0 0 0 0 0 0 0 0 127 0" result="hardAlpha"/>
<feOffset dx="1.31615" dy="1.57937"/>
<feGaussianBlur stdDeviation="1.18453"/>
<feComposite in2="hardAlpha" operator="out"/>
<feColorMatrix type="matrix" values="0 0 0 0 0.228976 0 0 0 0 0.34229 0 0 0 0 0.504167 0 0 0 0.15 0"/>
<feBlend mode="normal" in2="BackgroundImageFix" result="effect1_dropShadow_207_884"/>
<feBlend mode="normal" in="SourceGraphic" in2="effect1_dropShadow_207_884" result="shape"/>
</filter>
<filter id="filter10_d_207_884" x="57.8386" y="55.7941" width="35.2605" height="9.77941" filterUnits="userSpaceOnUse" color-interpolation-filters="sRGB">
<feFlood flood-opacity="0" result="BackgroundImageFix"/>
<feColorMatrix in="SourceAlpha" type="matrix" values="0 0 0 0 0 0 0 0 0 0 0 0 0 0 0 0 0 0 127 0" result="hardAlpha"/>
<feOffset dy="0.789687"/>
<feGaussianBlur stdDeviation="1.05292"/>
<feComposite in2="hardAlpha" operator="out"/>
<feColorMatrix type="matrix" values="0 0 0 0 0.6825 0 0 0 0 0.782885 0 0 0 0 0.9 0 0 0 0.5 0"/>
<feBlend mode="normal" in2="BackgroundImageFix" result="effect1_dropShadow_207_884"/>
<feBlend mode="normal" in="SourceGraphic" in2="effect1_dropShadow_207_884" result="shape"/>
</filter>
<filter id="filter11_d_207_884" x="58.8915" y="47.558" width="35.787" height="15.7732" filterUnits="userSpaceOnUse" color-interpolation-filters="sRGB">
<feFlood flood-opacity="0" result="BackgroundImageFix"/>
<feColorMatrix in="SourceAlpha" type="matrix" values="0 0 0 0 0 0 0 0 0 0 0 0 0 0 0 0 0 0 127 0" result="hardAlpha"/>
<feOffset dx="1.31615" dy="1.57937"/>
<feGaussianBlur stdDeviation="1.18453"/>
<feComposite in2="hardAlpha" operator="out"/>
<feColorMatrix type="matrix" values="0 0 0 0 0.228976 0 0 0 0 0.34229 0 0 0 0 0.504167 0 0 0 0.15 0"/>
<feBlend mode="normal" in2="BackgroundImageFix" result="effect1_dropShadow_207_884"/>
<feBlend mode="normal" in="SourceGraphic" in2="effect1_dropShadow_207_884" result="shape"/>
</filter>
<filter id="filter12_d_207_884" x="57.8386" y="47.0315" width="35.2605" height="9.77943" filterUnits="userSpaceOnUse" color-interpolation-filters="sRGB">
<feFlood flood-opacity="0" result="BackgroundImageFix"/>
<feColorMatrix in="SourceAlpha" type="matrix" values="0 0 0 0 0 0 0 0 0 0 0 0 0 0 0 0 0 0 127 0" result="hardAlpha"/>
<feOffset dy="0.789687"/>
<feGaussianBlur stdDeviation="1.05292"/>
<feComposite in2="hardAlpha" operator="out"/>
<feColorMatrix type="matrix" values="0 0 0 0 0.6825 0 0 0 0 0.782885 0 0 0 0 0.9 0 0 0 0.5 0"/>
<feBlend mode="normal" in2="BackgroundImageFix" result="effect1_dropShadow_207_884"/>
<feBlend mode="normal" in="SourceGraphic" in2="effect1_dropShadow_207_884" result="shape"/>
</filter>
<filter id="filter13_d_207_884" x="-0.00942802" y="0.00984263" width="83.4051" height="79.1298" filterUnits="userSpaceOnUse" color-interpolation-filters="sRGB">
<feFlood flood-opacity="0" result="BackgroundImageFix"/>
<feColorMatrix in="SourceAlpha" type="matrix" values="0 0 0 0 0 0 0 0 0 0 0 0 0 0 0 0 0 0 127 0" result="hardAlpha"/>
<feOffset dx="2.89552" dy="3.68521"/>
<feGaussianBlur stdDeviation="7.89687"/>
<feComposite in2="hardAlpha" operator="out"/>
<feColorMatrix type="matrix" values="0 0 0 0 0.386111 0 0 0 0 0.465605 0 0 0 0 0.579167 0 0 0 0.25 0"/>
<feBlend mode="normal" in2="BackgroundImageFix" result="effect1_dropShadow_207_884"/>
<feBlend mode="normal" in="SourceGraphic" in2="effect1_dropShadow_207_884" result="shape"/>
</filter>
<filter id="filter14_d_207_884" x="55.5593" y="34.7614" width="6.15466" height="6.08175" filterUnits="userSpaceOnUse" color-interpolation-filters="sRGB">
<feFlood flood-opacity="0" result="BackgroundImageFix"/>
<feColorMatrix in="SourceAlpha" type="matrix" values="0 0 0 0 0 0 0 0 0 0 0 0 0 0 0 0 0 0 127 0" result="hardAlpha"/>
<feOffset dy="0.526458"/>
<feGaussianBlur stdDeviation="0.526458"/>
<feComposite in2="hardAlpha" operator="out"/>
<feColorMatrix type="matrix" values="0 0 0 0 0 0 0 0 0 0 0 0 0 0 0 0 0 0 0.05 0"/>
<feBlend mode="normal" in2="BackgroundImageFix" result="effect1_dropShadow_207_884"/>
<feBlend mode="normal" in="SourceGraphic" in2="effect1_dropShadow_207_884" result="shape"/>
</filter>
<filter id="filter15_d_207_884" x="15.6113" y="31.5807" width="6.15466" height="6.08175" filterUnits="userSpaceOnUse" color-interpolation-filters="sRGB">
<feFlood flood-opacity="0" result="BackgroundImageFix"/>
<feColorMatrix in="SourceAlpha" type="matrix" values="0 0 0 0 0 0 0 0 0 0 0 0 0 0 0 0 0 0 127 0" result="hardAlpha"/>
<feOffset dy="0.526458"/>
<feGaussianBlur stdDeviation="0.526458"/>
<feComposite in2="hardAlpha" operator="out"/>
<feColorMatrix type="matrix" values="0 0 0 0 0 0 0 0 0 0 0 0 0 0 0 0 0 0 0.05 0"/>
<feBlend mode="normal" in2="BackgroundImageFix" result="effect1_dropShadow_207_884"/>
<feBlend mode="normal" in="SourceGraphic" in2="effect1_dropShadow_207_884" result="shape"/>
</filter>
<filter id="filter16_dd_207_884" x="24.3558" y="23.1207" width="27.5608" height="26.1825" filterUnits="userSpaceOnUse" color-interpolation-filters="sRGB">
<feFlood flood-opacity="0" result="BackgroundImageFix"/>
<feColorMatrix in="SourceAlpha" type="matrix" values="0 0 0 0 0 0 0 0 0 0 0 0 0 0 0 0 0 0 127 0" result="hardAlpha"/>
<feOffset dx="-2.63229" dy="-1.05292"/>
<feGaussianBlur stdDeviation="1.31615"/>
<feComposite in2="hardAlpha" operator="out"/>
<feColorMatrix type="matrix" values="0 0 0 0 1 0 0 0 0 1 0 0 0 0 1 0 0 0 0.5 0"/>
<feBlend mode="normal" in2="BackgroundImageFix" result="effect1_dropShadow_207_884"/>
<feColorMatrix in="SourceAlpha" type="matrix" values="0 0 0 0 0 0 0 0 0 0 0 0 0 0 0 0 0 0 127 0" result="hardAlpha"/>
<feOffset dx="0.526458" dy="1.05292"/>
<feGaussianBlur stdDeviation="1.8426"/>
<feComposite in2="hardAlpha" operator="out"/>
<feColorMatrix type="matrix" values="0 0 0 0 0.348958 0 0 0 0 0.462623 0 0 0 0 0.625 0 0 0 0.25 0"/>
<feBlend mode="normal" in2="effect1_dropShadow_207_884" result="effect2_dropShadow_207_884"/>
<feBlend mode="normal" in="SourceGraphic" in2="effect2_dropShadow_207_884" result="shape"/>
</filter>
<filter id="filter17_d_207_884" x="33.513" y="27.8699" width="10.238" height="18.0022" filterUnits="userSpaceOnUse" color-interpolation-filters="sRGB">
<feFlood flood-opacity="0" result="BackgroundImageFix"/>
<feColorMatrix in="SourceAlpha" type="matrix" values="0 0 0 0 0 0 0 0 0 0 0 0 0 0 0 0 0 0 127 0" result="hardAlpha"/>
<feOffset dy="1.05292"/>
<feGaussianBlur stdDeviation="0.789687"/>
<feComposite in2="hardAlpha" operator="out"/>
<feColorMatrix type="matrix" values="0 0 0 0 0 0 0 0 0 0 0 0 0 0 0 0 0 0 0.05 0"/>
<feBlend mode="normal" in2="BackgroundImageFix" result="effect1_dropShadow_207_884"/>
<feBlend mode="normal" in="SourceGraphic" in2="effect1_dropShadow_207_884" result="shape"/>
</filter>
<linearGradient id="paint0_linear_207_884" x1="75.4824" y1="77.6446" x2="81.8104" y2="97.6991" gradientUnits="userSpaceOnUse">
<stop stop-color="#925FE2"/>
<stop offset="1" stop-color="#E2D4F7"/>
</linearGradient>
<linearGradient id="paint1_linear_207_884" x1="75.4824" y1="77.6446" x2="75.4824" y2="85.75" gradientUnits="userSpaceOnUse">
<stop stop-color="#925FE2"/>
<stop offset="1" stop-color="#DFE7F5"/>
</linearGradient>
<linearGradient id="paint2_linear_207_884" x1="75.4824" y1="74.7149" x2="78.6183" y2="89.1827" gradientUnits="userSpaceOnUse">
<stop stop-color="#925FE2"/>
<stop offset="1" stop-color="#E2D4F7"/>
</linearGradient>
<linearGradient id="paint3_linear_207_884" x1="40.3703" y1="77.6446" x2="45.3406" y2="94.7679" gradientUnits="userSpaceOnUse">
<stop stop-color="#925FE2"/>
<stop offset="1" stop-color="#E2D4F7"/>
</linearGradient>
<linearGradient id="paint4_linear_207_884" x1="40.3703" y1="77.6446" x2="40.3703" y2="85.75" gradientUnits="userSpaceOnUse">
<stop stop-color="#925FE2"/>
<stop offset="1" stop-color="#DFE7F5"/>
</linearGradient>
<linearGradient id="paint5_linear_207_884" x1="40.3703" y1="74.7149" x2="42.816" y2="86.9807" gradientUnits="userSpaceOnUse">
<stop stop-color="#925FE2"/>
<stop offset="1" stop-color="#E2D4F7"/>
</linearGradient>
<linearGradient id="paint6_linear_207_884" x1="75.4824" y1="68.829" x2="86.5616" y2="82.2817" gradientUnits="userSpaceOnUse">
<stop stop-color="#925FE2"/>
<stop offset="1" stop-color="#E2D4F7"/>
</linearGradient>
<linearGradient id="paint7_linear_207_884" x1="75.4824" y1="68.829" x2="75.4824" y2="76.9343" gradientUnits="userSpaceOnUse">
<stop stop-color="#925FE2"/>
<stop offset="1" stop-color="#DFE7F5"/>
</linearGradient>
<linearGradient id="paint8_linear_207_884" x1="75.4824" y1="65.8993" x2="82.1289" y2="77.648" gradientUnits="userSpaceOnUse">
<stop stop-color="#925FE2"/>
<stop offset="1" stop-color="#E2D4F7"/>
</linearGradient>
<linearGradient id="paint9_linear_207_884" x1="40.3703" y1="68.829" x2="40.3703" y2="76.9343" gradientUnits="userSpaceOnUse">
<stop stop-color="#925FE2"/>
<stop offset="1" stop-color="#925FE2"/>
</linearGradient>
<linearGradient id="paint10_linear_207_884" x1="40.3703" y1="68.829" x2="40.3703" y2="76.9343" gradientUnits="userSpaceOnUse">
<stop stop-color="#925FE2"/>
<stop offset="1" stop-color="#DFE7F5"/>
</linearGradient>
<linearGradient id="paint11_linear_207_884" x1="40.3703" y1="65.8993" x2="40.3703" y2="71.467" gradientUnits="userSpaceOnUse">
<stop stop-color="#925FE2"/>
<stop offset="1" stop-color="#925FE2"/>
</linearGradient>
<linearGradient id="paint12_linear_207_884" x1="75.4689" y1="60.0399" x2="90.065" y2="77.1458" gradientUnits="userSpaceOnUse">
<stop stop-color="#925FE2"/>
<stop offset="1" stop-color="#E2D4F7"/>
</linearGradient>
<linearGradient id="paint13_linear_207_884" x1="75.4689" y1="60.0399" x2="75.4689" y2="68.1453" gradientUnits="userSpaceOnUse">
<stop stop-color="#925FE2"/>
<stop offset="1" stop-color="#DFE7F5"/>
</linearGradient>
<linearGradient id="paint14_linear_207_884" x1="75.4689" y1="57.1102" x2="84.3274" y2="72.2236" gradientUnits="userSpaceOnUse">
<stop stop-color="#925FE2"/>
<stop offset="1" stop-color="#E2D4F7"/>
</linearGradient>
<linearGradient id="paint15_linear_207_884" x1="75.4689" y1="51.2774" x2="87.8115" y2="69.0734" gradientUnits="userSpaceOnUse">
<stop stop-color="#925FE2"/>
<stop offset="1" stop-color="#E2D4F7"/>
</linearGradient>
<linearGradient id="paint16_linear_207_884" x1="75.4689" y1="51.2774" x2="75.4689" y2="59.3827" gradientUnits="userSpaceOnUse">
<stop stop-color="#925FE2"/>
<stop offset="1" stop-color="#DFE7F5"/>
</linearGradient>
<linearGradient id="paint17_linear_207_884" x1="75.4689" y1="48.3477" x2="82.4988" y2="63.1033" gradientUnits="userSpaceOnUse">
<stop stop-color="#925FE2"/>
<stop offset="1" stop-color="#E2D4F7"/>
</linearGradient>
<linearGradient id="paint18_linear_207_884" x1="13.0204" y1="28.1537" x2="89.7971" y2="60.7082" gradientUnits="userSpaceOnUse">
<stop stop-color="#925FE2"/>
<stop offset="1" stop-color="#E2D4F7"/>
</linearGradient>
<linearGradient id="paint19_linear_207_884" x1="13.8301" y1="29.0814" x2="64.4249" y2="44.2913" gradientUnits="userSpaceOnUse">
<stop stop-color="#925FE2"/>
<stop offset="1" stop-color="#E8EFFD"/>
</linearGradient>
<linearGradient id="paint20_linear_207_884" x1="58.6366" y1="35.2879" x2="58.6366" y2="39.2638" gradientUnits="userSpaceOnUse">
<stop offset="0.15625" stop-color="#925FE2"/>
<stop offset="1" stop-color="#F1F1F1"/>
</linearGradient>
<linearGradient id="paint21_linear_207_884" x1="18.6886" y1="32.1072" x2="18.6886" y2="36.0831" gradientUnits="userSpaceOnUse">
<stop offset="0.182292" stop-color="#925FE2"/>
<stop offset="1" stop-color="#F1F1F1"/>
</linearGradient>
<linearGradient id="paint22_linear_207_884" x1="38.6626" y1="26.8059" x2="38.6626" y2="44.5651" gradientUnits="userSpaceOnUse">
<stop stop-color="#E4EBF7" stop-opacity="0.5"/>
<stop offset="1" stop-color="#D9E4F4"/>
</linearGradient>
<linearGradient id="paint23_linear_207_884" x1="38.6296" y1="29.7217" x2="38.6296" y2="41.9145" gradientUnits="userSpaceOnUse">
<stop stop-color="#925FE2"/>
<stop offset="1" stop-color="#925FE2"/>
</linearGradient>
<linearGradient id="paint24_linear_207_884" x1="40.6871" y1="28.3963" x2="40.6871" y2="33.1674" gradientUnits="userSpaceOnUse">
<stop stop-color="#925FE2"/>
<stop offset="1" stop-color="#925FE2"/>
</linearGradient>
<linearGradient id="paint25_linear_207_884" x1="36.6383" y1="38.4687" x2="36.6383" y2="43.2398" gradientUnits="userSpaceOnUse">
<stop stop-color="#925FE2"/>
<stop offset="1" stop-color="#925FE2"/>
</linearGradient>
</defs>
</svg>
