<svg width="25" height="24" viewBox="0 0 25 24" fill="none" xmlns="http://www.w3.org/2000/svg">
<path fill-rule="evenodd" clip-rule="evenodd" d="M14.5 22H5.5C4.70435 22 3.94129 21.6839 3.37868 21.1213C2.81607 20.5587 2.5 19.7956 2.5 19V5C2.5 4.20435 2.81607 3.44129 3.37868 2.87868C3.94129 2.31607 4.70435 2 5.5 2H20.5C21.2956 2 22.0587 2.31607 22.6213 2.87868C23.1839 3.44129 23.5 4.20435 23.5 5V19C23.5 19.7956 23.1839 20.5587 22.6213 21.1213C22.0587 21.6839 21.2956 22 20.5 22H14.5ZM5.67 20C5.56 19.687 5.5 19.35 5.5 19V5C5.5 4.65 5.56 4.313 5.67 4H5.5C5.23478 4 4.98043 4.10536 4.79289 4.29289C4.60536 4.48043 4.5 4.73478 4.5 5V19C4.5 19.2652 4.60536 19.5196 4.79289 19.7071C4.98043 19.8946 5.23478 20 5.5 20H5.67ZM9.5 8.015C9.49974 7.88368 9.52534 7.75359 9.57535 7.63216C9.62537 7.51074 9.69881 7.40035 9.79148 7.30731C9.88415 7.21426 9.99424 7.14038 10.1155 7.08989C10.2367 7.03939 10.3667 7.01326 10.498 7.013L18.498 7C18.7632 6.99947 19.0178 7.10432 19.2057 7.29148C19.3936 7.47864 19.4995 7.73278 19.5 7.998C19.5005 8.26322 19.3957 8.51778 19.2085 8.70569C19.0214 8.8936 18.7672 8.99947 18.502 9L10.502 9.013C10.3707 9.01326 10.2406 8.98766 10.1192 8.93764C9.99774 8.88763 9.88735 8.81419 9.79431 8.72152C9.70126 8.62885 9.62738 8.51876 9.57689 8.39753C9.52639 8.27631 9.50026 8.14632 9.5 8.015ZM9.5 12.027C9.49973 11.762 9.6047 11.5076 9.79183 11.32C9.97896 11.1323 10.233 11.0265 10.498 11.026L18.498 11.013C18.7632 11.0125 19.0178 11.1173 19.2057 11.3045C19.3936 11.4916 19.4995 11.7458 19.5 12.011C19.5005 12.2762 19.3957 12.5308 19.2085 12.7187C19.0214 12.9066 18.7672 13.0125 18.502 13.013L10.502 13.026C10.3707 13.0263 10.2406 13.0007 10.1192 12.9506C9.99774 12.9006 9.88735 12.8272 9.79431 12.7345C9.70126 12.6418 9.62738 12.5318 9.57689 12.4105C9.52639 12.2893 9.50026 12.1583 9.5 12.027ZM9.5 16.027C9.49973 15.762 9.6047 15.5076 9.79183 15.32C9.97896 15.1323 10.233 15.0265 10.498 15.026L18.498 15.013C18.7632 15.0125 19.0178 15.1173 19.2057 15.3045C19.3936 15.4916 19.4995 15.7458 19.5 16.011C19.5005 16.2762 19.3957 16.5308 19.2085 16.7187C19.0214 16.9066 18.7672 17.0125 18.502 17.013L10.502 17.026C10.3707 17.0263 10.2406 17.0007 10.1192 16.9506C9.99774 16.9006 9.88735 16.8272 9.79431 16.7345C9.70126 16.6418 9.62738 16.5318 9.57689 16.4105C9.52639 16.2893 9.50026 16.1583 9.5 16.027Z" fill="white" fill-opacity="0.5"/>
</svg>
