<svg width="19" height="19" viewBox="0 0 19 19" fill="none" xmlns="http://www.w3.org/2000/svg">
<path d="M13.7917 12.1667H12.9358L12.6325 11.8742C13.9325 10.3575 14.6042 8.28834 14.2358 6.08917C13.7267 3.07751 11.2133 0.672506 8.18001 0.304173C3.59751 -0.25916 -0.25916 3.59751 0.304173 8.18001C0.672506 11.2133 3.07751 13.7267 6.08917 14.2358C8.28834 14.6042 10.3575 13.9325 11.8742 12.6325L12.1667 12.9358V13.7917L16.7708 18.3958C17.215 18.84 17.9408 18.84 18.385 18.3958C18.8292 17.9517 18.8292 17.2258 18.385 16.7817L13.7917 12.1667ZM7.29167 12.1667C4.59417 12.1667 2.41667 9.98917 2.41667 7.29167C2.41667 4.59417 4.59417 2.41667 7.29167 2.41667C9.98917 2.41667 12.1667 4.59417 12.1667 7.29167C12.1667 9.98917 9.98917 12.1667 7.29167 12.1667Z" fill="#C0B5B5"/>
</svg>
